<svg width="1440" height="126" fill="none" xmlns="http://www.w3.org/2000/svg"><g opacity=".5" fill="#fff"><path d="M24.52 22.996L10.401 10.338a.684.684 0 00-1.003.092c-2.86 3.813-2.084 9.527 1.905 13.103 3.989 3.577 9.752 3.728 13.233.47a.685.685 0 00-.018-1.007zm73.09 86.402l14.118 12.658a.683.683 0 001.003-.092c2.859-3.812 2.083-9.527-1.905-13.103-3.989-3.576-9.753-3.728-13.233-.47a.685.685 0 00.017 1.007zm15.929-61.842l-14.682-12a.684.684 0 00-.998.139c-2.681 3.94-1.645 9.612 2.503 13.002 4.149 3.39 9.913 3.278 13.241-.136a.685.685 0 00-.064-1.005zm-95.24 41.743l13.354-13.461a.684.684 0 00-.042-1.007c-3.663-3.048-9.41-2.56-13.182 1.242-3.773 3.803-4.215 9.552-1.137 13.192a.685.685 0 001.007.034zm-2.841-30.638c-2.784.296-5.522-3.991-6.115-9.576-.593-5.585 1.183-10.352 3.967-10.647 2.784-.296 5.522 3.992 6.115 9.576.593 5.585-1.183 10.352-3.967 10.647zm92.828 9.629c2.784-.295 5.521 3.993 6.114 9.577.593 5.585-1.183 10.352-3.967 10.647-2.783.296-5.521-3.992-6.114-9.576-.593-5.585 1.183-10.352 3.967-10.647zM77.928 15.453c1.81 1.302.62 6.053-2.657 10.613-3.278 4.56-7.403 7.202-9.213 5.9-1.81-1.3-.621-6.052 2.657-10.612 3.278-4.56 7.403-7.202 9.213-5.9zM50.989 92.948c-2.217-.242-3.52-4.963-2.913-10.546.608-5.583 2.898-9.914 5.114-9.672 2.217.241 3.52 4.963 2.913 10.546-.608 5.583-2.898 9.913-5.114 9.672z"/><path fill-rule="evenodd" clip-rule="evenodd" d="M52.165 45.313a2.88 2.88 0 01-.67 4.022c-2.923 2.082-6.856 2.7-10.581 1.49-3.725-1.211-6.543-4.023-7.684-7.424a2.88 2.88 0 011.82-3.648 2.893 2.893 0 013.657 1.822c.538 1.605 1.943 3.101 3.989 3.766 2.046.664 4.061.28 5.44-.702a2.893 2.893 0 014.029.674zM73.288 80.8a2.88 2.88 0 01.671-4.022c2.923-2.082 6.856-2.7 10.58-1.49 3.726 1.211 6.544 4.023 7.685 7.424a2.88 2.88 0 01-1.821 3.648 2.893 2.893 0 01-3.656-1.822c-.539-1.605-1.943-3.101-3.989-3.766-2.046-.664-4.062-.28-5.44.702a2.893 2.893 0 01-4.03-.674zm28.848-68.188a2.879 2.879 0 012.387-3.305c3.543-.567 7.341.627 10.141 3.366s4.075 6.51 3.587 10.064a2.88 2.88 0 01-3.252 2.46 2.893 2.893 0 01-2.466-3.257c.23-1.677-.364-3.642-1.901-5.146-1.538-1.504-3.515-2.055-5.186-1.788a2.893 2.893 0 01-3.31-2.394zM57.35 113.026a2.88 2.88 0 01-.004 4.078c-2.542 2.532-6.32 3.785-10.194 3.201-3.873-.584-7.113-2.897-8.796-6.065a2.88 2.88 0 011.2-3.897 2.893 2.893 0 013.905 1.199c.794 1.495 2.424 2.741 4.55 3.062 2.128.321 4.054-.389 5.253-1.583a2.893 2.893 0 014.085.005z"/><path d="M40.362 14.979a2.443 2.443 0 01.668-3.39l11.869-7.96a2.443 2.443 0 013.39.668l2.347 3.5a2.443 2.443 0 01-.668 3.39l-11.87 7.96a2.443 2.443 0 01-3.389-.668l-2.347-3.5zm26.817 86.766a2.442 2.442 0 011.865-2.907l13.963-3.049a2.443 2.443 0 012.907 1.866l.9 4.117a2.443 2.443 0 01-1.866 2.908l-13.962 3.048a2.442 2.442 0 01-2.908-1.866l-.9-4.117zM81.248 62.57a2.443 2.443 0 01-3.45-.196l-9.512-10.665a2.443 2.443 0 01.197-3.45l3.145-2.804a2.443 2.443 0 013.449.197l9.513 10.664a2.443 2.443 0 01-.197 3.45l-3.145 2.805zM14.83 99.779a2.443 2.443 0 012.82 1.994l2.418 14.086a2.444 2.444 0 01-1.994 2.821l-4.154.712a2.442 2.442 0 01-2.82-1.994l-2.418-14.085a2.443 2.443 0 011.994-2.821l4.153-.713zm135.689-76.783l-14.117-12.658a.684.684 0 00-1.003.092c-2.859 3.813-2.084 9.527 1.905 13.103 3.989 3.577 9.752 3.728 13.233.47a.685.685 0 00-.018-1.007zm73.091 86.402l14.118 12.658a.683.683 0 001.003-.092c2.859-3.812 2.083-9.527-1.905-13.103-3.989-3.576-9.753-3.728-13.233-.47a.686.686 0 00.017 1.007zm15.929-61.842l-14.682-12a.683.683 0 00-.997.139c-2.682 3.94-1.646 9.612 2.502 13.002 4.149 3.39 9.913 3.278 13.241-.136a.685.685 0 00-.064-1.005zm-95.24 41.743l13.354-13.461a.683.683 0 00-.042-1.007c-3.663-3.048-9.409-2.56-13.182 1.242-3.773 3.803-4.215 9.552-1.137 13.192a.685.685 0 001.007.034zm-2.841-30.638c-2.784.296-5.522-3.991-6.115-9.576-.593-5.585 1.183-10.352 3.967-10.647 2.784-.296 5.522 3.992 6.115 9.576.593 5.585-1.183 10.352-3.967 10.647zm92.828 9.629c2.784-.295 5.521 3.993 6.114 9.577.593 5.585-1.183 10.352-3.967 10.647-2.784.296-5.521-3.992-6.114-9.576-.593-5.585 1.183-10.352 3.967-10.647zm-30.358-52.837c1.81 1.302.621 6.053-2.657 10.613s-7.403 7.202-9.214 5.9c-1.81-1.3-.62-6.052 2.658-10.612 3.278-4.56 7.402-7.202 9.213-5.9zm-26.939 77.495c-2.217-.242-3.521-4.963-2.913-10.546.608-5.583 2.898-9.914 5.114-9.672 2.217.241 3.521 4.963 2.913 10.546-.608 5.583-2.898 9.913-5.114 9.672z"/><path fill-rule="evenodd" clip-rule="evenodd" d="M178.165 45.313a2.88 2.88 0 01-.671 4.022c-2.922 2.082-6.855 2.7-10.58 1.49-3.725-1.211-6.543-4.023-7.684-7.424a2.879 2.879 0 011.821-3.648 2.893 2.893 0 013.656 1.822c.538 1.605 1.943 3.101 3.988 3.766 2.047.664 4.062.28 5.441-.702a2.892 2.892 0 014.029.674zM199.289 80.8a2.878 2.878 0 01.67-4.022c2.923-2.082 6.856-2.7 10.581-1.49 3.725 1.211 6.543 4.023 7.684 7.424a2.88 2.88 0 01-1.821 3.648 2.893 2.893 0 01-3.656-1.822c-.539-1.605-1.943-3.101-3.989-3.766-2.046-.664-4.062-.28-5.44.702a2.892 2.892 0 01-4.029-.674zm28.847-68.188a2.879 2.879 0 012.387-3.305c3.543-.567 7.341.627 10.141 3.366s4.075 6.51 3.587 10.064a2.88 2.88 0 01-3.252 2.46 2.893 2.893 0 01-2.466-3.257c.23-1.677-.364-3.642-1.901-5.146-1.538-1.504-3.515-2.055-5.186-1.788a2.893 2.893 0 01-3.31-2.394zm-44.787 100.414a2.88 2.88 0 01-.003 4.078c-2.542 2.532-6.321 3.785-10.194 3.201-3.873-.584-7.113-2.897-8.796-6.065a2.88 2.88 0 011.199-3.897 2.894 2.894 0 013.906 1.199c.793 1.495 2.424 2.741 4.551 3.062 2.127.321 4.053-.389 5.252-1.583a2.893 2.893 0 014.085.005z"/><path d="M166.362 14.979a2.442 2.442 0 01.668-3.39l11.869-7.96a2.442 2.442 0 013.389.668l2.348 3.5a2.444 2.444 0 01-.668 3.39l-11.869 7.96a2.443 2.443 0 01-3.39-.668l-2.347-3.5zm26.817 86.766a2.442 2.442 0 011.865-2.907l13.963-3.049a2.443 2.443 0 012.908 1.866l.898 4.117a2.443 2.443 0 01-1.865 2.908l-13.963 3.048a2.441 2.441 0 01-2.907-1.866l-.899-4.117zm14.069-39.175a2.443 2.443 0 01-3.449-.196l-9.513-10.665a2.443 2.443 0 01.197-3.45l3.145-2.804a2.443 2.443 0 013.449.197l9.513 10.664a2.443 2.443 0 01-.197 3.45l-3.145 2.805zm-66.419 37.209a2.443 2.443 0 012.821 1.994l2.418 14.086a2.443 2.443 0 01-1.994 2.821l-4.153.712a2.443 2.443 0 01-2.822-1.994l-2.417-14.085a2.442 2.442 0 011.994-2.821l4.153-.713zm135.69-76.783l-14.117-12.658a.684.684 0 00-1.003.092c-2.859 3.813-2.084 9.527 1.905 13.103 3.989 3.577 9.752 3.728 13.233.47a.685.685 0 00-.018-1.007zm73.091 86.402l14.118 12.658a.683.683 0 001.003-.092c2.859-3.812 2.083-9.527-1.905-13.103-3.989-3.576-9.753-3.728-13.233-.47a.686.686 0 00.017 1.007zm15.929-61.842l-14.682-12a.683.683 0 00-.997.139c-2.682 3.94-1.646 9.612 2.502 13.002 4.149 3.39 9.913 3.278 13.241-.136a.685.685 0 00-.064-1.005zm-95.24 41.743l13.354-13.461a.683.683 0 00-.042-1.007c-3.663-3.048-9.409-2.56-13.182 1.242-3.773 3.803-4.215 9.552-1.137 13.192a.685.685 0 001.007.034zm-2.841-30.638c-2.784.296-5.522-3.991-6.115-9.576-.593-5.585 1.183-10.352 3.967-10.647 2.784-.296 5.522 3.992 6.115 9.576.593 5.585-1.183 10.352-3.967 10.647zm92.828 9.629c2.784-.295 5.521 3.993 6.114 9.577.593 5.585-1.183 10.352-3.967 10.647-2.784.296-5.521-3.992-6.114-9.576-.593-5.585 1.183-10.352 3.967-10.647zm-30.358-52.837c1.81 1.302.621 6.053-2.657 10.613s-7.403 7.202-9.214 5.9c-1.81-1.3-.62-6.052 2.658-10.612 3.278-4.56 7.402-7.202 9.213-5.9zm-26.939 77.495c-2.217-.242-3.521-4.963-2.913-10.546.608-5.583 2.898-9.914 5.114-9.672 2.217.241 3.521 4.963 2.913 10.546-.608 5.583-2.898 9.913-5.114 9.672z"/><path fill-rule="evenodd" clip-rule="evenodd" d="M304.165 45.313a2.88 2.88 0 01-.671 4.022c-2.922 2.082-6.855 2.7-10.58 1.49-3.725-1.211-6.543-4.023-7.684-7.424a2.879 2.879 0 011.821-3.648 2.893 2.893 0 013.656 1.822c.538 1.605 1.943 3.101 3.988 3.766 2.047.664 4.062.28 5.441-.702a2.892 2.892 0 014.029.674zM325.289 80.8a2.878 2.878 0 01.67-4.022c2.923-2.082 6.856-2.7 10.581-1.49 3.725 1.211 6.543 4.023 7.684 7.424a2.88 2.88 0 01-1.821 3.648 2.893 2.893 0 01-3.656-1.822c-.539-1.605-1.943-3.101-3.989-3.766-2.046-.664-4.062-.28-5.44.702a2.892 2.892 0 01-4.029-.674zm28.847-68.188a2.879 2.879 0 012.387-3.305c3.543-.567 7.341.627 10.141 3.366s4.075 6.51 3.587 10.064a2.88 2.88 0 01-3.252 2.46 2.893 2.893 0 01-2.466-3.257c.23-1.677-.364-3.642-1.901-5.146-1.538-1.504-3.515-2.055-5.186-1.788a2.893 2.893 0 01-3.31-2.394zm-44.787 100.414a2.88 2.88 0 01-.003 4.078c-2.542 2.532-6.321 3.785-10.194 3.201-3.873-.584-7.113-2.897-8.796-6.065a2.88 2.88 0 011.199-3.897 2.892 2.892 0 013.905 1.199c.794 1.495 2.425 2.741 4.552 3.062 2.127.321 4.053-.389 5.252-1.583a2.893 2.893 0 014.085.005z"/><path d="M292.362 14.979a2.442 2.442 0 01.668-3.39l11.869-7.96a2.442 2.442 0 013.389.668l2.348 3.5a2.444 2.444 0 01-.668 3.39l-11.869 7.96a2.443 2.443 0 01-3.39-.668l-2.347-3.5zm26.817 86.766a2.442 2.442 0 011.865-2.907l13.963-3.049a2.443 2.443 0 012.908 1.866l.898 4.117a2.443 2.443 0 01-1.865 2.908l-13.963 3.048a2.441 2.441 0 01-2.907-1.866l-.899-4.117zm14.069-39.175a2.443 2.443 0 01-3.449-.196l-9.513-10.665a2.443 2.443 0 01.197-3.45l3.145-2.804a2.443 2.443 0 013.449.197l9.513 10.664a2.443 2.443 0 01-.197 3.45l-3.145 2.805zm-66.419 37.209a2.443 2.443 0 012.821 1.994l2.418 14.086a2.443 2.443 0 01-1.994 2.821l-4.154.712a2.443 2.443 0 01-2.821-1.994l-2.417-14.085a2.442 2.442 0 011.994-2.821l4.153-.713zm135.69-76.783l-14.117-12.658a.684.684 0 00-1.003.092c-2.859 3.813-2.084 9.527 1.905 13.103 3.989 3.577 9.752 3.728 13.233.47a.685.685 0 00-.018-1.007zm73.091 86.402l14.118 12.658a.683.683 0 001.003-.092c2.859-3.812 2.083-9.527-1.905-13.103-3.989-3.576-9.753-3.728-13.233-.47a.686.686 0 00.017 1.007zm15.929-61.842l-14.682-12a.683.683 0 00-.997.139c-2.682 3.94-1.646 9.612 2.502 13.002 4.149 3.39 9.913 3.278 13.241-.136a.685.685 0 00-.064-1.005zm-95.24 41.743l13.354-13.461a.683.683 0 00-.042-1.007c-3.663-3.048-9.409-2.56-13.182 1.242-3.773 3.803-4.215 9.552-1.137 13.192a.685.685 0 001.007.034zm-2.841-30.638c-2.784.296-5.522-3.991-6.115-9.576-.593-5.585 1.183-10.352 3.967-10.647 2.784-.296 5.522 3.992 6.115 9.576.593 5.585-1.183 10.352-3.967 10.647zm92.828 9.629c2.784-.295 5.521 3.993 6.114 9.577.593 5.585-1.183 10.352-3.967 10.647-2.784.296-5.521-3.992-6.114-9.576-.593-5.585 1.183-10.352 3.967-10.647zm-30.358-52.837c1.81 1.302.621 6.053-2.657 10.613s-7.403 7.202-9.214 5.9c-1.81-1.3-.62-6.052 2.658-10.612 3.278-4.56 7.402-7.202 9.213-5.9zm-26.939 77.495c-2.217-.242-3.521-4.963-2.913-10.546.608-5.583 2.898-9.914 5.114-9.672 2.217.241 3.521 4.963 2.913 10.546-.608 5.583-2.898 9.913-5.114 9.672z"/><path fill-rule="evenodd" clip-rule="evenodd" d="M430.165 45.313a2.88 2.88 0 01-.671 4.022c-2.922 2.082-6.855 2.7-10.58 1.49-3.725-1.211-6.543-4.023-7.684-7.424a2.879 2.879 0 011.821-3.648 2.893 2.893 0 013.656 1.822c.538 1.605 1.943 3.101 3.988 3.766 2.047.664 4.062.28 5.441-.702a2.892 2.892 0 014.029.674zM451.289 80.8a2.878 2.878 0 01.67-4.022c2.923-2.082 6.856-2.7 10.581-1.49 3.725 1.211 6.543 4.023 7.684 7.424a2.88 2.88 0 01-1.821 3.648 2.892 2.892 0 01-3.656-1.822c-.539-1.605-1.943-3.101-3.989-3.766-2.046-.664-4.062-.28-5.44.702a2.892 2.892 0 01-4.029-.674zm28.847-68.188a2.879 2.879 0 012.387-3.305c3.543-.567 7.341.627 10.141 3.366s4.075 6.51 3.587 10.064a2.88 2.88 0 01-3.252 2.46 2.893 2.893 0 01-2.466-3.257c.23-1.677-.364-3.642-1.901-5.146-1.538-1.504-3.515-2.055-5.186-1.788a2.893 2.893 0 01-3.31-2.394zm-44.787 100.414a2.88 2.88 0 01-.003 4.078c-2.542 2.532-6.321 3.785-10.194 3.201-3.873-.584-7.113-2.897-8.796-6.065a2.88 2.88 0 011.199-3.897 2.892 2.892 0 013.905 1.199c.794 1.495 2.425 2.741 4.552 3.062 2.127.321 4.053-.389 5.252-1.583a2.893 2.893 0 014.085.005z"/><path d="M418.362 14.979a2.442 2.442 0 01.668-3.39l11.869-7.96a2.442 2.442 0 013.389.668l2.348 3.5a2.444 2.444 0 01-.668 3.39l-11.869 7.96a2.443 2.443 0 01-3.39-.668l-2.347-3.5zm26.817 86.766a2.442 2.442 0 011.865-2.907l13.963-3.049a2.443 2.443 0 012.908 1.866l.898 4.117a2.443 2.443 0 01-1.865 2.908l-13.963 3.048a2.441 2.441 0 01-2.907-1.866l-.899-4.117zm14.069-39.175a2.443 2.443 0 01-3.449-.196l-9.513-10.665a2.443 2.443 0 01.197-3.45l3.145-2.804a2.443 2.443 0 013.449.197l9.513 10.664a2.443 2.443 0 01-.197 3.45l-3.145 2.805zm-66.419 37.209a2.443 2.443 0 012.821 1.994l2.418 14.086a2.443 2.443 0 01-1.994 2.821l-4.154.712a2.443 2.443 0 01-2.821-1.994l-2.417-14.085a2.442 2.442 0 011.994-2.821l4.153-.713zm135.69-76.783l-14.117-12.658a.684.684 0 00-1.003.092c-2.859 3.813-2.084 9.527 1.905 13.103 3.989 3.577 9.752 3.728 13.233.47a.685.685 0 00-.018-1.007zm73.091 86.402l14.118 12.658a.683.683 0 001.003-.092c2.859-3.812 2.083-9.527-1.905-13.103-3.989-3.576-9.753-3.728-13.233-.47a.686.686 0 00.017 1.007zm15.929-61.842l-14.682-12a.683.683 0 00-.997.139c-2.682 3.94-1.646 9.612 2.502 13.002 4.149 3.39 9.913 3.278 13.241-.136a.685.685 0 00-.064-1.005zm-95.24 41.743l13.354-13.461a.683.683 0 00-.042-1.007c-3.663-3.048-9.409-2.56-13.182 1.242-3.773 3.803-4.215 9.552-1.137 13.192a.685.685 0 001.007.034zm-2.841-30.638c-2.784.296-5.522-3.991-6.115-9.576-.593-5.585 1.183-10.352 3.967-10.647 2.784-.296 5.522 3.992 6.115 9.576.593 5.585-1.183 10.352-3.967 10.647zm92.828 9.629c2.784-.295 5.521 3.993 6.114 9.577.593 5.585-1.183 10.352-3.967 10.647-2.784.296-5.521-3.992-6.114-9.576-.593-5.585 1.183-10.352 3.967-10.647zm-30.358-52.837c1.81 1.302.621 6.053-2.657 10.613s-7.403 7.202-9.214 5.9c-1.81-1.3-.62-6.052 2.658-10.612 3.278-4.56 7.402-7.202 9.213-5.9zm-26.939 77.495c-2.217-.242-3.521-4.963-2.913-10.546.608-5.583 2.898-9.914 5.114-9.672 2.217.241 3.521 4.963 2.913 10.546-.608 5.583-2.898 9.913-5.114 9.672z"/><path fill-rule="evenodd" clip-rule="evenodd" d="M556.165 45.313a2.88 2.88 0 01-.671 4.022c-2.922 2.082-6.855 2.7-10.58 1.49-3.725-1.211-6.543-4.023-7.684-7.424a2.879 2.879 0 011.821-3.648 2.893 2.893 0 013.656 1.822c.538 1.605 1.943 3.101 3.988 3.766 2.047.664 4.062.28 5.441-.702a2.892 2.892 0 014.029.674zM577.289 80.8a2.878 2.878 0 01.67-4.022c2.923-2.082 6.856-2.7 10.581-1.49 3.725 1.211 6.543 4.023 7.684 7.424a2.88 2.88 0 01-1.821 3.648 2.892 2.892 0 01-3.656-1.822c-.539-1.605-1.943-3.101-3.989-3.766-2.046-.664-4.062-.28-5.44.702a2.892 2.892 0 01-4.029-.674zm28.847-68.188a2.879 2.879 0 012.387-3.305c3.543-.567 7.341.627 10.141 3.366s4.075 6.51 3.587 10.064a2.88 2.88 0 01-3.252 2.46 2.893 2.893 0 01-2.466-3.257c.23-1.677-.364-3.642-1.901-5.146-1.538-1.504-3.515-2.055-5.186-1.788a2.893 2.893 0 01-3.31-2.394zm-44.787 100.414a2.88 2.88 0 01-.003 4.078c-2.542 2.532-6.321 3.785-10.194 3.201-3.873-.584-7.113-2.897-8.796-6.065a2.88 2.88 0 011.199-3.897 2.892 2.892 0 013.905 1.199c.794 1.495 2.425 2.741 4.552 3.062 2.127.321 4.053-.389 5.252-1.583a2.893 2.893 0 014.085.005z"/><path d="M544.362 14.979a2.442 2.442 0 01.668-3.39l11.869-7.96a2.442 2.442 0 013.389.668l2.348 3.5a2.444 2.444 0 01-.668 3.39l-11.869 7.96a2.443 2.443 0 01-3.39-.668l-2.347-3.5zm26.817 86.766a2.442 2.442 0 011.865-2.907l13.963-3.049a2.443 2.443 0 012.908 1.866l.898 4.117a2.443 2.443 0 01-1.865 2.908l-13.963 3.048a2.441 2.441 0 01-2.907-1.866l-.899-4.117zm14.069-39.175a2.443 2.443 0 01-3.449-.196l-9.513-10.665a2.443 2.443 0 01.197-3.45l3.145-2.804a2.443 2.443 0 013.449.197l9.513 10.664a2.443 2.443 0 01-.197 3.45l-3.145 2.805zm-66.419 37.209a2.443 2.443 0 012.821 1.994l2.418 14.086a2.443 2.443 0 01-1.994 2.821l-4.154.712a2.443 2.443 0 01-2.821-1.994l-2.417-14.085a2.442 2.442 0 011.994-2.821l4.153-.713zm135.69-76.783l-14.117-12.658a.684.684 0 00-1.003.092c-2.859 3.813-2.084 9.527 1.905 13.103 3.989 3.577 9.752 3.728 13.233.47a.685.685 0 00-.018-1.007zm73.091 86.402l14.118 12.658a.683.683 0 001.003-.092c2.859-3.812 2.083-9.527-1.905-13.103-3.989-3.576-9.753-3.728-13.233-.47a.686.686 0 00.017 1.007zm15.929-61.842l-14.682-12a.683.683 0 00-.997.139c-2.682 3.94-1.646 9.612 2.502 13.002 4.149 3.39 9.913 3.278 13.241-.136a.685.685 0 00-.064-1.005zm-95.24 41.743l13.354-13.461a.683.683 0 00-.042-1.007c-3.663-3.048-9.409-2.56-13.182 1.242-3.773 3.803-4.215 9.552-1.137 13.192a.685.685 0 001.007.034zm-2.841-30.638c-2.784.296-5.522-3.991-6.115-9.576-.593-5.585 1.183-10.352 3.967-10.647 2.784-.296 5.522 3.992 6.115 9.576.593 5.585-1.183 10.352-3.967 10.647zm92.828 9.629c2.784-.295 5.521 3.993 6.114 9.577.593 5.585-1.183 10.352-3.967 10.647-2.784.296-5.521-3.992-6.114-9.576-.593-5.585 1.183-10.352 3.967-10.647zm-30.358-52.837c1.81 1.302.621 6.053-2.657 10.613s-7.403 7.202-9.214 5.9c-1.81-1.3-.62-6.052 2.658-10.612 3.278-4.56 7.402-7.202 9.213-5.9zm-26.939 77.495c-2.217-.242-3.521-4.963-2.913-10.546.608-5.583 2.898-9.914 5.114-9.672 2.217.241 3.521 4.963 2.913 10.546-.608 5.583-2.898 9.913-5.114 9.672z"/><path fill-rule="evenodd" clip-rule="evenodd" d="M682.165 45.313a2.88 2.88 0 01-.671 4.022c-2.922 2.082-6.855 2.7-10.58 1.49-3.725-1.211-6.543-4.023-7.684-7.424a2.879 2.879 0 011.821-3.648 2.893 2.893 0 013.656 1.822c.538 1.605 1.943 3.101 3.988 3.766 2.047.664 4.062.28 5.441-.702a2.892 2.892 0 014.029.674zM703.289 80.8a2.878 2.878 0 01.67-4.022c2.923-2.082 6.856-2.7 10.581-1.49 3.725 1.211 6.543 4.023 7.684 7.424a2.88 2.88 0 01-1.821 3.648 2.892 2.892 0 01-3.656-1.822c-.539-1.605-1.943-3.101-3.989-3.766-2.046-.664-4.062-.28-5.44.702a2.892 2.892 0 01-4.029-.674zm28.847-68.188a2.879 2.879 0 012.387-3.305c3.543-.567 7.341.627 10.141 3.366s4.075 6.51 3.587 10.064a2.88 2.88 0 01-3.252 2.46 2.893 2.893 0 01-2.466-3.257c.23-1.677-.364-3.642-1.901-5.146-1.538-1.504-3.515-2.055-5.186-1.788a2.893 2.893 0 01-3.31-2.394zm-44.787 100.414a2.88 2.88 0 01-.003 4.078c-2.542 2.532-6.321 3.785-10.194 3.201-3.873-.584-7.113-2.897-8.796-6.065a2.88 2.88 0 011.199-3.897 2.892 2.892 0 013.905 1.199c.794 1.495 2.425 2.741 4.552 3.062 2.127.321 4.053-.389 5.252-1.583a2.893 2.893 0 014.085.005z"/><path d="M670.362 14.979a2.442 2.442 0 01.668-3.39l11.869-7.96a2.442 2.442 0 013.389.668l2.348 3.5a2.444 2.444 0 01-.668 3.39l-11.869 7.96a2.443 2.443 0 01-3.39-.668l-2.347-3.5zm26.817 86.766a2.442 2.442 0 011.865-2.907l13.963-3.049a2.443 2.443 0 012.908 1.866l.898 4.117a2.443 2.443 0 01-1.865 2.908l-13.963 3.048a2.441 2.441 0 01-2.907-1.866l-.899-4.117zm14.069-39.175a2.443 2.443 0 01-3.449-.196l-9.513-10.665a2.443 2.443 0 01.197-3.45l3.145-2.804a2.443 2.443 0 013.449.197l9.513 10.664a2.443 2.443 0 01-.197 3.45l-3.145 2.805zm-66.419 37.209a2.443 2.443 0 012.821 1.994l2.418 14.086a2.443 2.443 0 01-1.994 2.821l-4.154.712a2.443 2.443 0 01-2.821-1.994l-2.417-14.085a2.442 2.442 0 011.994-2.821l4.153-.713zm135.69-76.783l-14.117-12.658a.684.684 0 00-1.003.092c-2.859 3.813-2.084 9.527 1.905 13.103 3.989 3.577 9.752 3.728 13.233.47a.685.685 0 00-.018-1.007zm73.091 86.402l14.118 12.658a.683.683 0 001.003-.092c2.859-3.812 2.083-9.527-1.905-13.103-3.989-3.576-9.753-3.728-13.233-.47a.686.686 0 00.017 1.007zm15.929-61.842l-14.682-12a.683.683 0 00-.997.139c-2.682 3.94-1.646 9.612 2.502 13.002 4.149 3.39 9.913 3.278 13.241-.136a.685.685 0 00-.064-1.005zm-95.24 41.743l13.354-13.461a.683.683 0 00-.042-1.007c-3.663-3.048-9.409-2.56-13.182 1.242-3.773 3.803-4.215 9.552-1.137 13.192a.685.685 0 001.007.034zm-2.841-30.638c-2.784.296-5.522-3.991-6.115-9.576-.593-5.585 1.183-10.352 3.967-10.647 2.784-.296 5.522 3.992 6.115 9.576.593 5.585-1.183 10.352-3.967 10.647zm92.828 9.629c2.784-.295 5.521 3.993 6.114 9.577.593 5.585-1.183 10.352-3.967 10.647-2.784.296-5.521-3.992-6.114-9.576-.593-5.585 1.183-10.352 3.967-10.647zm-30.358-52.837c1.81 1.302.621 6.053-2.657 10.613s-7.403 7.202-9.214 5.9c-1.81-1.3-.62-6.052 2.658-10.612 3.278-4.56 7.402-7.202 9.213-5.9zm-26.939 77.495c-2.217-.242-3.521-4.963-2.913-10.546.608-5.583 2.898-9.914 5.114-9.672 2.217.241 3.521 4.963 2.913 10.546-.608 5.583-2.898 9.913-5.114 9.672z"/><path fill-rule="evenodd" clip-rule="evenodd" d="M808.165 45.313a2.88 2.88 0 01-.671 4.022c-2.922 2.082-6.855 2.7-10.58 1.49-3.725-1.211-6.543-4.023-7.684-7.424a2.879 2.879 0 011.821-3.648 2.893 2.893 0 013.656 1.822c.538 1.605 1.943 3.101 3.988 3.766 2.047.664 4.062.28 5.441-.702a2.892 2.892 0 014.029.674zM829.289 80.8a2.878 2.878 0 01.67-4.022c2.923-2.082 6.856-2.7 10.581-1.49 3.725 1.211 6.543 4.023 7.684 7.424a2.88 2.88 0 01-1.821 3.648 2.892 2.892 0 01-3.656-1.822c-.539-1.605-1.943-3.101-3.989-3.766-2.046-.664-4.062-.28-5.44.702a2.892 2.892 0 01-4.029-.674zm28.847-68.188a2.879 2.879 0 012.387-3.305c3.543-.567 7.341.627 10.141 3.366s4.075 6.51 3.587 10.064a2.88 2.88 0 01-3.252 2.46 2.893 2.893 0 01-2.466-3.257c.23-1.677-.364-3.642-1.901-5.146-1.538-1.504-3.515-2.055-5.186-1.788a2.893 2.893 0 01-3.31-2.394zm-44.787 100.414a2.88 2.88 0 01-.003 4.078c-2.542 2.532-6.321 3.785-10.194 3.201-3.873-.584-7.113-2.897-8.796-6.065a2.88 2.88 0 011.199-3.897 2.892 2.892 0 013.905 1.199c.794 1.495 2.425 2.741 4.552 3.062 2.127.321 4.053-.389 5.252-1.583a2.893 2.893 0 014.085.005z"/><path d="M796.362 14.979a2.442 2.442 0 01.668-3.39l11.869-7.96a2.442 2.442 0 013.389.668l2.348 3.5a2.444 2.444 0 01-.668 3.39l-11.869 7.96a2.443 2.443 0 01-3.39-.668l-2.347-3.5zm26.817 86.766a2.442 2.442 0 011.865-2.907l13.963-3.049a2.443 2.443 0 012.908 1.866l.898 4.117a2.443 2.443 0 01-1.865 2.908l-13.963 3.048a2.441 2.441 0 01-2.907-1.866l-.899-4.117zm14.069-39.175a2.443 2.443 0 01-3.449-.196l-9.513-10.665a2.443 2.443 0 01.197-3.45l3.145-2.804a2.443 2.443 0 013.449.197l9.513 10.664a2.443 2.443 0 01-.197 3.45l-3.145 2.805zm-66.419 37.209a2.443 2.443 0 012.821 1.994l2.418 14.086a2.443 2.443 0 01-1.994 2.821l-4.154.712a2.443 2.443 0 01-2.821-1.994l-2.417-14.085a2.442 2.442 0 011.994-2.821l4.153-.713zm135.69-76.783l-14.117-12.658a.684.684 0 00-1.003.092c-2.859 3.813-2.084 9.527 1.905 13.103 3.989 3.577 9.752 3.728 13.233.47a.685.685 0 00-.018-1.007zm73.091 86.402l14.118 12.658a.683.683 0 001.003-.092c2.859-3.812 2.083-9.527-1.905-13.103-3.989-3.576-9.753-3.728-13.233-.47a.686.686 0 00.017 1.007zm15.929-61.842l-14.682-12a.683.683 0 00-.997.139c-2.682 3.94-1.646 9.612 2.502 13.002 4.149 3.39 9.913 3.278 13.241-.136a.685.685 0 00-.064-1.005zm-95.24 41.743l13.354-13.461a.683.683 0 00-.042-1.007c-3.663-3.048-9.409-2.56-13.182 1.242-3.773 3.803-4.215 9.552-1.137 13.192a.685.685 0 001.007.034zm-2.841-30.638c-2.784.296-5.522-3.991-6.115-9.576-.593-5.585 1.183-10.352 3.967-10.647 2.784-.296 5.522 3.992 6.115 9.576.593 5.585-1.183 10.352-3.967 10.647zm92.828 9.629c2.784-.295 5.521 3.993 6.114 9.577.593 5.585-1.183 10.352-3.967 10.647-2.784.296-5.521-3.992-6.114-9.576-.593-5.585 1.183-10.352 3.967-10.647zm-30.358-52.837c1.81 1.302.621 6.053-2.657 10.613s-7.403 7.202-9.214 5.9c-1.81-1.3-.62-6.052 2.658-10.612 3.278-4.56 7.402-7.202 9.213-5.9zm-26.939 77.495c-2.217-.242-3.521-4.963-2.913-10.546.608-5.583 2.898-9.914 5.114-9.672 2.217.241 3.521 4.963 2.913 10.546-.608 5.583-2.898 9.913-5.114 9.672z"/><path fill-rule="evenodd" clip-rule="evenodd" d="M934.165 45.313a2.88 2.88 0 01-.671 4.022c-2.922 2.082-6.855 2.7-10.58 1.49-3.725-1.211-6.543-4.023-7.684-7.424a2.879 2.879 0 011.821-3.648 2.893 2.893 0 013.656 1.822c.538 1.605 1.943 3.101 3.988 3.766 2.047.664 4.062.28 5.441-.702a2.892 2.892 0 014.029.674zM955.289 80.8a2.878 2.878 0 01.67-4.022c2.923-2.082 6.856-2.7 10.581-1.49 3.725 1.211 6.543 4.023 7.684 7.424a2.88 2.88 0 01-1.821 3.648 2.893 2.893 0 01-3.656-1.822c-.539-1.605-1.943-3.101-3.989-3.766-2.046-.664-4.062-.28-5.44.702a2.892 2.892 0 01-4.029-.674zm28.847-68.188a2.879 2.879 0 012.387-3.305c3.543-.567 7.341.627 10.141 3.366s4.076 6.51 3.586 10.064a2.88 2.88 0 01-3.251 2.46 2.893 2.893 0 01-2.466-3.257c.23-1.677-.364-3.642-1.901-5.146-1.538-1.504-3.515-2.055-5.186-1.788a2.893 2.893 0 01-3.31-2.394zm-44.787 100.414a2.88 2.88 0 01-.003 4.078c-2.542 2.532-6.321 3.785-10.194 3.201-3.873-.584-7.113-2.897-8.796-6.065a2.88 2.88 0 011.199-3.897 2.892 2.892 0 013.905 1.199c.794 1.495 2.425 2.741 4.552 3.062 2.127.321 4.053-.389 5.252-1.583a2.893 2.893 0 014.085.005z"/><path d="M922.362 14.979a2.442 2.442 0 01.668-3.39l11.869-7.96a2.442 2.442 0 013.389.668l2.348 3.5a2.444 2.444 0 01-.668 3.39l-11.869 7.96a2.443 2.443 0 01-3.39-.668l-2.347-3.5zm26.817 86.766a2.442 2.442 0 011.865-2.907l13.963-3.049a2.443 2.443 0 012.908 1.866l.898 4.117a2.443 2.443 0 01-1.865 2.908l-13.963 3.048a2.441 2.441 0 01-2.907-1.866l-.899-4.117zm14.069-39.175a2.443 2.443 0 01-3.449-.196l-9.513-10.665a2.443 2.443 0 01.197-3.45l3.145-2.804a2.443 2.443 0 013.449.197l9.513 10.664a2.443 2.443 0 01-.197 3.45l-3.145 2.805zm-66.419 37.209a2.443 2.443 0 012.821 1.994l2.418 14.086a2.443 2.443 0 01-1.994 2.821l-4.154.712a2.443 2.443 0 01-2.821-1.994l-2.417-14.085a2.442 2.442 0 011.994-2.821l4.153-.713zm135.691-76.783l-14.12-12.658a.681.681 0 00-1 .092c-2.86 3.813-2.08 9.527 1.9 13.103 3.99 3.577 9.76 3.728 13.24.47a.684.684 0 00-.02-1.007zm73.09 86.402l14.12 12.658a.68.68 0 001-.092c2.86-3.812 2.08-9.527-1.9-13.103-3.99-3.576-9.76-3.728-13.24-.47a.684.684 0 00.02 1.007zm15.93-61.842l-14.68-12c-.31-.25-.78-.194-1 .139-2.68 3.94-1.65 9.612 2.5 13.002 4.15 3.39 9.92 3.278 13.24-.136a.683.683 0 00-.06-1.005zm-95.24 41.743l13.35-13.461a.683.683 0 00-.04-1.007c-3.66-3.048-9.41-2.56-13.18 1.242-3.77 3.803-4.22 9.552-1.14 13.192.26.306.73.316 1.01.034zm-2.84-30.638c-2.79.296-5.52-3.991-6.12-9.576-.59-5.585 1.19-10.352 3.97-10.647 2.78-.296 5.52 3.992 6.11 9.576.6 5.585-1.18 10.352-3.96 10.647zm92.83 9.629c2.78-.295 5.52 3.993 6.11 9.577.59 5.585-1.18 10.352-3.97 10.647-2.78.296-5.52-3.992-6.11-9.576-.59-5.585 1.18-10.352 3.97-10.647zm-30.36-52.837c1.81 1.302.62 6.053-2.66 10.613-3.28 4.56-7.4 7.202-9.21 5.9-1.81-1.3-.62-6.052 2.65-10.612 3.28-4.56 7.41-7.202 9.22-5.9zm-26.94 77.495c-2.22-.242-3.52-4.963-2.91-10.546.6-5.583 2.89-9.914 5.11-9.672 2.22.241 3.52 4.963 2.91 10.546-.61 5.583-2.89 9.913-5.11 9.672z"/><path fill-rule="evenodd" clip-rule="evenodd" d="M1060.16 45.313a2.875 2.875 0 01-.67 4.022c-2.92 2.082-6.85 2.7-10.58 1.49-3.72-1.211-6.54-4.023-7.68-7.424a2.878 2.878 0 011.82-3.648 2.9 2.9 0 013.66 1.822c.54 1.605 1.94 3.101 3.99 3.766 2.04.664 4.06.28 5.44-.702a2.882 2.882 0 014.02.674zm21.13 35.487a2.875 2.875 0 01.67-4.022c2.92-2.082 6.85-2.7 10.58-1.49 3.72 1.211 6.54 4.023 7.68 7.424a2.87 2.87 0 01-1.82 3.648 2.884 2.884 0 01-3.65-1.822c-.54-1.605-1.95-3.101-3.99-3.766-2.05-.664-4.06-.28-5.44.702-1.3.924-3.1.622-4.03-.674zm28.85-68.188a2.873 2.873 0 012.38-3.305c3.55-.567 7.34.627 10.14 3.366 2.8 2.739 4.08 6.51 3.59 10.064a2.878 2.878 0 01-3.25 2.46 2.9 2.9 0 01-2.47-3.257c.23-1.677-.36-3.642-1.9-5.146s-3.51-2.055-5.18-1.788a2.886 2.886 0 01-3.31-2.394zm-44.79 100.414a2.877 2.877 0 010 4.078c-2.55 2.532-6.32 3.785-10.2 3.201-3.87-.584-7.11-2.897-8.79-6.065a2.877 2.877 0 011.2-3.897 2.89 2.89 0 013.9 1.199c.79 1.495 2.43 2.741 4.55 3.062 2.13.321 4.05-.389 5.25-1.583a2.9 2.9 0 014.09.005z"/><path d="M1048.36 14.979a2.445 2.445 0 01.67-3.39l11.87-7.96a2.443 2.443 0 013.39.668l2.35 3.5c.75 1.12.45 2.638-.67 3.39l-11.87 7.96a2.443 2.443 0 01-3.39-.668l-2.35-3.5zm26.82 86.766a2.443 2.443 0 011.86-2.907l13.97-3.049a2.435 2.435 0 012.9 1.866l.9 4.117a2.437 2.437 0 01-1.86 2.908l-13.96 3.048a2.445 2.445 0 01-2.91-1.866l-.9-4.117zm14.07-39.175c-1.01.899-2.55.81-3.45-.196l-9.51-10.665a2.447 2.447 0 01.19-3.45l3.15-2.804c1-.898 2.55-.81 3.45.197l9.51 10.664a2.44 2.44 0 01-.2 3.45l-3.14 2.805zm-66.42 37.209a2.443 2.443 0 012.82 1.994l2.42 14.086a2.446 2.446 0 01-2 2.821l-4.15.712a2.442 2.442 0 01-2.82-1.994l-2.42-14.085a2.445 2.445 0 012-2.821l4.15-.713zm135.69-76.783l-14.12-12.658a.681.681 0 00-1 .092c-2.86 3.813-2.08 9.527 1.9 13.103 3.99 3.577 9.76 3.728 13.24.47a.684.684 0 00-.02-1.007zm73.09 86.402l14.12 12.658a.68.68 0 001-.092c2.86-3.812 2.08-9.527-1.9-13.103-3.99-3.576-9.76-3.728-13.24-.47a.684.684 0 00.02 1.007zm15.93-61.842l-14.68-12c-.31-.25-.78-.194-1 .139-2.68 3.94-1.65 9.612 2.5 13.002 4.15 3.39 9.92 3.278 13.24-.136a.683.683 0 00-.06-1.005zm-95.24 41.743l13.35-13.461a.683.683 0 00-.04-1.007c-3.66-3.048-9.41-2.56-13.18 1.242-3.77 3.803-4.22 9.552-1.14 13.192.26.306.73.316 1.01.034zm-2.84-30.638c-2.79.296-5.52-3.991-6.12-9.576-.59-5.585 1.19-10.352 3.97-10.647 2.78-.296 5.52 3.992 6.11 9.576.6 5.585-1.18 10.352-3.96 10.647zm92.83 9.629c2.78-.295 5.52 3.993 6.11 9.577.59 5.585-1.18 10.352-3.97 10.647-2.78.296-5.52-3.992-6.11-9.576-.59-5.585 1.18-10.352 3.97-10.647zm-30.36-52.837c1.81 1.302.62 6.053-2.66 10.613-3.28 4.56-7.4 7.202-9.21 5.9-1.81-1.3-.62-6.052 2.65-10.612 3.28-4.56 7.41-7.202 9.22-5.9zm-26.94 77.495c-2.22-.242-3.52-4.963-2.91-10.546.6-5.583 2.89-9.914 5.11-9.672 2.22.241 3.52 4.963 2.91 10.546-.61 5.583-2.89 9.913-5.11 9.672z"/><path fill-rule="evenodd" clip-rule="evenodd" d="M1186.16 45.313a2.875 2.875 0 01-.67 4.022c-2.92 2.082-6.85 2.7-10.58 1.49-3.72-1.211-6.54-4.023-7.68-7.424a2.878 2.878 0 011.82-3.648 2.9 2.9 0 013.66 1.822c.54 1.605 1.94 3.101 3.99 3.766 2.04.664 4.06.28 5.44-.702a2.882 2.882 0 014.02.674zm21.13 35.487a2.875 2.875 0 01.67-4.022c2.92-2.082 6.85-2.7 10.58-1.49 3.72 1.211 6.54 4.023 7.68 7.424a2.87 2.87 0 01-1.82 3.648 2.884 2.884 0 01-3.65-1.822c-.54-1.605-1.95-3.101-3.99-3.766-2.05-.664-4.06-.28-5.44.702-1.3.924-3.1.622-4.03-.674zm28.85-68.188a2.873 2.873 0 012.38-3.305c3.55-.567 7.34.627 10.14 3.366 2.8 2.739 4.08 6.51 3.59 10.064a2.878 2.878 0 01-3.25 2.46 2.9 2.9 0 01-2.47-3.257c.23-1.677-.36-3.642-1.9-5.146s-3.51-2.055-5.18-1.788a2.886 2.886 0 01-3.31-2.394zm-44.79 100.414a2.877 2.877 0 010 4.078c-2.55 2.532-6.32 3.785-10.2 3.201-3.87-.584-7.11-2.897-8.79-6.065a2.877 2.877 0 011.2-3.897 2.89 2.89 0 013.9 1.199c.79 1.495 2.43 2.741 4.55 3.062 2.13.321 4.05-.389 5.25-1.583a2.9 2.9 0 014.09.005z"/><path d="M1174.36 14.979a2.445 2.445 0 01.67-3.39l11.87-7.96a2.443 2.443 0 013.39.668l2.35 3.5c.75 1.12.45 2.638-.67 3.39l-11.87 7.96a2.443 2.443 0 01-3.39-.668l-2.35-3.5zm26.82 86.766a2.443 2.443 0 011.86-2.907l13.97-3.049a2.435 2.435 0 012.9 1.866l.9 4.117a2.437 2.437 0 01-1.86 2.908l-13.96 3.048a2.445 2.445 0 01-2.91-1.866l-.9-4.117zm14.07-39.175c-1.01.899-2.55.81-3.45-.196l-9.51-10.665a2.447 2.447 0 01.19-3.45l3.15-2.804c1-.898 2.55-.81 3.45.197l9.51 10.664a2.44 2.44 0 01-.2 3.45l-3.14 2.805zm-66.42 37.209a2.443 2.443 0 012.82 1.994l2.42 14.086a2.446 2.446 0 01-2 2.821l-4.15.712a2.442 2.442 0 01-2.82-1.994l-2.42-14.085a2.445 2.445 0 012-2.821l4.15-.713zm135.69-76.783l-14.12-12.658a.681.681 0 00-1 .092c-2.86 3.813-2.08 9.527 1.9 13.103 3.99 3.577 9.76 3.728 13.24.47a.684.684 0 00-.02-1.007zm73.09 86.402l14.12 12.658a.68.68 0 001-.092c2.86-3.812 2.08-9.527-1.9-13.103-3.99-3.576-9.76-3.728-13.24-.47a.684.684 0 00.02 1.007zm15.93-61.842l-14.68-12c-.31-.25-.78-.194-1 .139-2.68 3.94-1.65 9.612 2.5 13.002 4.15 3.39 9.92 3.278 13.24-.136a.683.683 0 00-.06-1.005zm-95.24 41.743l13.35-13.461a.683.683 0 00-.04-1.007c-3.66-3.048-9.41-2.56-13.18 1.242-3.77 3.803-4.22 9.552-1.14 13.192.26.306.73.316 1.01.034zm-2.84-30.638c-2.79.296-5.52-3.991-6.12-9.576-.59-5.585 1.19-10.352 3.97-10.647 2.78-.296 5.52 3.992 6.11 9.576.6 5.585-1.18 10.352-3.96 10.647zm92.83 9.629c2.78-.295 5.52 3.993 6.11 9.577.59 5.585-1.18 10.352-3.97 10.647-2.78.296-5.52-3.992-6.11-9.576-.59-5.585 1.18-10.352 3.97-10.647zm-30.36-52.837c1.81 1.302.62 6.053-2.66 10.613-3.28 4.56-7.4 7.202-9.21 5.9-1.81-1.3-.62-6.052 2.65-10.612 3.28-4.56 7.41-7.202 9.22-5.9zm-26.94 77.495c-2.22-.242-3.52-4.963-2.91-10.546.6-5.583 2.89-9.914 5.11-9.672 2.22.241 3.52 4.963 2.91 10.546-.61 5.583-2.89 9.913-5.11 9.672z"/><path fill-rule="evenodd" clip-rule="evenodd" d="M1312.17 45.313a2.886 2.886 0 01-.68 4.022c-2.92 2.082-6.85 2.7-10.58 1.49-3.72-1.211-6.54-4.023-7.68-7.424a2.878 2.878 0 011.82-3.648 2.9 2.9 0 013.66 1.822c.54 1.605 1.94 3.101 3.99 3.766 2.04.664 4.06.28 5.44-.702a2.895 2.895 0 014.03.674zm21.12 35.487a2.875 2.875 0 01.67-4.022c2.92-2.082 6.85-2.7 10.58-1.49 3.72 1.211 6.54 4.023 7.68 7.424a2.87 2.87 0 01-1.82 3.648 2.884 2.884 0 01-3.65-1.822c-.54-1.605-1.95-3.101-3.99-3.766-2.05-.664-4.06-.28-5.44.702-1.3.924-3.1.622-4.03-.674zm28.85-68.188a2.873 2.873 0 012.38-3.305c3.55-.567 7.34.627 10.14 3.366 2.8 2.739 4.08 6.51 3.59 10.064a2.878 2.878 0 01-3.25 2.46 2.9 2.9 0 01-2.47-3.257c.23-1.677-.36-3.642-1.9-5.146s-3.51-2.055-5.18-1.788a2.886 2.886 0 01-3.31-2.394zm-44.79 100.414a2.877 2.877 0 010 4.078c-2.55 2.532-6.32 3.785-10.2 3.201-3.87-.584-7.11-2.897-8.79-6.065a2.877 2.877 0 011.2-3.897 2.89 2.89 0 013.9 1.199c.79 1.495 2.43 2.741 4.55 3.062 2.13.321 4.05-.389 5.25-1.583a2.9 2.9 0 014.09.005z"/><path d="M1300.36 14.979a2.445 2.445 0 01.67-3.39l11.87-7.96a2.443 2.443 0 013.39.668l2.35 3.5c.75 1.12.45 2.638-.67 3.39l-11.87 7.96a2.443 2.443 0 01-3.39-.668l-2.35-3.5zm26.82 86.766a2.443 2.443 0 011.86-2.907l13.97-3.049a2.435 2.435 0 012.9 1.866l.9 4.117a2.437 2.437 0 01-1.86 2.908l-13.96 3.048a2.445 2.445 0 01-2.91-1.866l-.9-4.117zm14.07-39.175c-1.01.899-2.55.81-3.45-.196l-9.51-10.665a2.447 2.447 0 01.19-3.45l3.15-2.804c1-.898 2.55-.81 3.45.197l9.51 10.664a2.44 2.44 0 01-.2 3.45l-3.14 2.805zm-66.42 37.209a2.443 2.443 0 012.82 1.994l2.42 14.086a2.446 2.446 0 01-2 2.821l-4.15.712a2.442 2.442 0 01-2.82-1.994l-2.42-14.085a2.445 2.445 0 012-2.821l4.15-.713zm135.69-76.783l-14.12-12.658a.681.681 0 00-1 .092c-2.86 3.813-2.08 9.527 1.9 13.103 3.99 3.577 9.76 3.728 13.24.47a.684.684 0 00-.02-1.007zm-6.22 66.303l13.35-13.461a.683.683 0 00-.04-1.007c-3.66-3.048-9.41-2.56-13.18 1.242-3.77 3.803-4.22 9.552-1.14 13.192.26.306.73.316 1.01.034zm-2.84-30.638c-2.79.296-5.52-3.991-6.12-9.576-.59-5.585 1.19-10.352 3.97-10.647 2.78-.296 5.52 3.992 6.11 9.576.6 5.585-1.18 10.352-3.96 10.647zm35.53 34.287c-2.22-.242-3.52-4.963-2.91-10.546.6-5.583 2.89-9.914 5.11-9.672 2.22.241 3.52 4.963 2.91 10.546-.61 5.583-2.89 9.913-5.11 9.672z"/><path fill-rule="evenodd" clip-rule="evenodd" d="M1438.17 45.313a2.886 2.886 0 01-.68 4.022c-2.92 2.082-6.85 2.7-10.58 1.49-3.72-1.211-6.54-4.023-7.68-7.424a2.878 2.878 0 011.82-3.648 2.9 2.9 0 013.66 1.822c.54 1.605 1.94 3.101 3.99 3.766 2.04.664 4.06.28 5.44-.702a2.895 2.895 0 014.03.674zm5.18 67.713a2.877 2.877 0 010 4.078c-2.55 2.532-6.32 3.785-10.2 3.201-3.87-.584-7.11-2.897-8.79-6.065a2.877 2.877 0 011.2-3.897 2.89 2.89 0 013.9 1.199c.79 1.495 2.43 2.741 4.55 3.062 2.13.321 4.05-.389 5.25-1.583a2.9 2.9 0 014.09.005z"/><path d="M1426.36 14.979a2.445 2.445 0 01.67-3.39l11.87-7.96a2.443 2.443 0 013.39.668l2.35 3.5c.75 1.12.45 2.638-.67 3.39l-11.87 7.96a2.443 2.443 0 01-3.39-.668l-2.35-3.5zm-25.53 84.8a2.443 2.443 0 012.82 1.994l2.42 14.086a2.446 2.446 0 01-2 2.821l-4.15.712a2.442 2.442 0 01-2.82-1.994l-2.42-14.085a2.445 2.445 0 012-2.821l4.15-.713z"/></g></svg>