<svg width="558" height="170" fill="none" xmlns="http://www.w3.org/2000/svg"><path d="M435.342 29c-.335 0-.636-.114-.903-.34a1.272 1.272 0 01-.352-.877V18.97h-8.832c-.335 0-.636-.114-.904-.34a1.276 1.276 0 01-.351-.877v-3.75c0-.356.117-.648.351-.876.235-.26.536-.39.904-.39h8.832v-8.52c0-.357.117-.649.352-.876.267-.227.568-.341.903-.341h4.316c.368 0 .669.114.903.34.268.228.402.52.402.877v8.52h8.732c.368 0 .669.13.904.39.267.228.401.52.401.877v3.749c0 .357-.134.649-.401.876-.235.227-.536.341-.904.341h-8.732v8.813c0 .357-.134.649-.402.876-.234.227-.535.341-.903.341h-4.316zm75.461 98c-.496 0-.942-.17-1.338-.511-.347-.39-.521-.828-.521-1.315v-13.219h-13.085a2 2 0 01-1.339-.511c-.347-.39-.52-.828-.52-1.315v-5.623c0-.536.173-.974.52-1.315.347-.39.794-.584 1.339-.584h13.085V89.826c0-.536.174-.974.521-1.315.396-.34.842-.511 1.338-.511h6.394c.545 0 .991.17 1.338.511.397.341.595.78.595 1.315v12.781h12.937c.545 0 .991.194 1.338.584.397.341.595.779.595 1.315v5.623c0 .536-.198.974-.595 1.315-.347.341-.793.511-1.338.511H519.13v13.219c0 .536-.198.974-.595 1.315-.347.341-.793.511-1.338.511h-6.394zM306.561 52a.918.918 0 01-.602-.223.826.826 0 01-.234-.573v-5.762h-5.889a.917.917 0 01-.602-.223.826.826 0 01-.234-.573v-2.451c0-.234.078-.425.234-.573a.781.781 0 01.602-.255h5.889v-5.571c0-.234.078-.425.234-.573a.918.918 0 01.602-.223h2.878c.245 0 .446.074.602.223.178.148.268.34.268.573v5.571h5.821a.78.78 0 01.602.255.71.71 0 01.268.573v2.451a.71.71 0 01-.268.573.838.838 0 01-.602.223h-5.821v5.762c0 .234-.09.425-.268.573a.838.838 0 01-.602.223h-2.878zm-144.52-38a.623.623 0 01-.402-.144.526.526 0 01-.156-.371V9.757h-3.925a.623.623 0 01-.402-.145.526.526 0 01-.156-.37V7.655c0-.15.052-.274.156-.37a.529.529 0 01.402-.165h3.925V3.515c0-.151.052-.275.156-.37a.623.623 0 01.402-.145h1.918a.57.57 0 01.402.144c.119.096.178.22.178.371V7.12h3.881a.53.53 0 01.402.165c.119.096.178.22.178.37v1.587a.455.455 0 01-.178.37.57.57 0 01-.402.145h-3.881v3.728a.455.455 0 01-.178.37.569.569 0 01-.402.145h-1.918zm288 151a.624.624 0 01-.402-.144.527.527 0 01-.156-.371v-3.728h-3.925a.625.625 0 01-.402-.145.525.525 0 01-.156-.37v-1.587a.48.48 0 01.156-.37.528.528 0 01.402-.165h3.925v-3.605c0-.151.052-.275.156-.371a.624.624 0 01.402-.144h1.918a.57.57 0 01.402.144c.119.096.178.22.178.371v3.605h3.881a.53.53 0 01.402.165.453.453 0 01.178.37v1.587a.453.453 0 01-.178.37.572.572 0 01-.402.145h-3.881v3.728a.455.455 0 01-.178.371.57.57 0 01-.402.144h-1.918zm72-154a.623.623 0 01-.402-.144.526.526 0 01-.156-.371V6.757h-3.925a.623.623 0 01-.402-.145.526.526 0 01-.156-.37V4.655c0-.15.052-.274.156-.37a.529.529 0 01.402-.165h3.925V.515c0-.151.052-.275.156-.37a.623.623 0 01.402-.145h1.918a.57.57 0 01.402.144c.119.096.178.22.178.371V4.12h3.881a.53.53 0 01.402.165c.119.096.178.22.178.37v1.587a.455.455 0 01-.178.37.57.57 0 01-.402.145h-3.881v3.728a.455.455 0 01-.178.37.569.569 0 01-.402.145h-1.918zm29 159a.624.624 0 01-.402-.144.527.527 0 01-.156-.371v-3.728h-3.925a.625.625 0 01-.402-.145.525.525 0 01-.156-.37v-1.587a.48.48 0 01.156-.37.528.528 0 01.402-.165h3.925v-3.605c0-.151.052-.275.156-.371a.624.624 0 01.402-.144h1.918a.57.57 0 01.402.144c.119.096.178.22.178.371v3.605h3.881a.53.53 0 01.402.165.453.453 0 01.178.37v1.587a.453.453 0 01-.178.37.572.572 0 01-.402.145h-3.881v3.728a.455.455 0 01-.178.371.57.57 0 01-.402.144h-1.918zm-253-6a.624.624 0 01-.402-.144.527.527 0 01-.156-.371v-3.728h-3.925a.625.625 0 01-.402-.145.525.525 0 01-.156-.37v-1.587a.48.48 0 01.156-.37.528.528 0 01.402-.165h3.925v-3.605c0-.151.052-.275.156-.371a.624.624 0 01.402-.144h1.918a.57.57 0 01.402.144c.119.096.178.22.178.371v3.605h3.881a.53.53 0 01.402.165.453.453 0 01.178.37v1.587a.453.453 0 01-.178.37.572.572 0 01-.402.145h-3.881v3.728a.455.455 0 01-.178.371.57.57 0 01-.402.144h-1.918zM3.78 170a.475.475 0 01-.3-.105.377.377 0 01-.118-.27v-2.711H.418a.475.475 0 01-.3-.105.377.377 0 01-.118-.27v-1.153c0-.11.039-.2.117-.27a.402.402 0 01.301-.12h2.944v-2.621c0-.11.04-.2.118-.27a.475.475 0 01.3-.105h1.44c.122 0 .222.035.3.105.09.07.134.16.134.27v2.621h2.911c.123 0 .223.04.301.12.09.07.134.16.134.27v1.153c0 .11-.045.2-.134.27a.434.434 0 01-.3.105H5.653v2.711c0 .11-.044.2-.134.27a.434.434 0 01-.3.105H3.78zm327.082-51c-.408 0-.776-.135-1.104-.406-.286-.31-.429-.658-.429-1.045v-10.508h-10.796c-.408 0-.776-.135-1.104-.406-.286-.31-.429-.658-.429-1.045v-4.47c0-.426.143-.774.429-1.045.287-.31.655-.465 1.104-.465h10.796V89.451c0-.425.143-.774.429-1.045a1.69 1.69 0 011.104-.406h5.276c.449 0 .817.135 1.104.406.327.271.49.62.49 1.045v10.16h10.673c.45 0 .818.154 1.104.464.327.271.491.619.491 1.045v4.47c0 .426-.164.774-.491 1.045-.286.271-.654.406-1.104.406h-10.673v10.508c0 .425-.163.774-.49 1.045-.287.271-.655.406-1.104.406h-5.276z" fill="#F63"/><path d="M349.854 55a2.205 2.205 0 01-1.498-.55c-.368-.367-.552-.838-.552-1.414V46.12h-5.833c-.578 0-1.051-.183-1.419-.55a2.187 2.187 0 01-.552-1.49v-3.143c0-.577.184-1.048.552-1.415.42-.366.893-.55 1.419-.55h5.833v-3.928h-5.833c-.526 0-.999-.184-1.419-.55-.368-.42-.552-.89-.552-1.414v-6.286c0-.576.184-1.048.552-1.414.42-.367.893-.55 1.419-.55h5.833V2.043c0-.576.184-1.048.552-1.414.421-.42.92-.629 1.498-.629h22.309c6.78 0 12.114 1.545 16.003 4.636 3.889 3.09 5.834 7.621 5.834 13.593 0 5.604-1.945 9.821-5.834 12.65-3.836 2.776-9.17 4.164-16.003 4.164h-8.986v3.928h10.09c.578 0 1.051.184 1.419.55.368.367.552.838.552 1.415v3.143c0 .576-.184 1.073-.552 1.492-.368.367-.841.55-1.419.55h-10.09v6.915c0 .576-.211 1.047-.631 1.414-.368.367-.841.55-1.419.55h-11.273zm21.915-30.171c2.155 0 3.837-.55 5.046-1.65 1.261-1.153 1.892-2.829 1.892-5.029 0-2.043-.579-3.693-1.735-4.95-1.156-1.257-2.89-1.886-5.203-1.886h-8.908V24.83h8.908zM488.124 65c-.535 0-.997-.173-1.387-.52-.34-.347-.511-.792-.511-1.337v-6.537h-5.401c-.535 0-.973-.174-1.314-.52a2.093 2.093 0 01-.511-1.412v-2.971c0-.545.17-.99.511-1.337.389-.347.827-.52 1.314-.52h5.401V46.13h-5.401c-.487 0-.925-.173-1.314-.52a1.996 1.996 0 01-.511-1.337V38.33c0-.544.17-.99.511-1.337.389-.346.827-.52 1.314-.52h5.401V14.931c0-.544.171-.99.511-1.337.39-.396.852-.594 1.387-.594h20.657c6.277 0 11.217 1.461 14.818 4.383C527.2 20.305 529 24.589 529 30.234c0 5.3-1.8 9.286-5.401 11.96-3.553 2.625-8.492 3.937-14.818 3.937h-8.321v3.715h9.343c.535 0 .973.173 1.314.52.34.346.511.792.511 1.337v2.971c0 .545-.171 1.016-.511 1.412-.341.346-.779.52-1.314.52h-9.343v6.537c0 .545-.195.99-.584 1.337-.341.347-.779.52-1.314.52h-10.438zm20.292-28.526c1.995 0 3.552-.52 4.672-1.56 1.167-1.09 1.751-2.674 1.751-4.754 0-1.931-.535-3.491-1.605-4.68-1.071-1.189-2.677-1.783-4.818-1.783h-8.248v12.777h8.248zM481.657 165c-.332 0-.619-.11-.86-.33-.211-.22-.317-.503-.317-.849v-4.148h-3.349c-.331 0-.603-.11-.814-.33a1.35 1.35 0 01-.317-.896v-1.886c0-.345.106-.628.317-.848.241-.22.513-.33.814-.33h3.349v-2.357h-3.349c-.301 0-.573-.11-.814-.33a1.289 1.289 0 01-.317-.849v-3.771c0-.346.106-.629.317-.849.241-.22.513-.33.814-.33h3.349v-13.671c0-.346.106-.629.317-.849.241-.251.528-.377.86-.377h12.807c3.892 0 6.954.927 9.187 2.781 2.233 1.855 3.349 4.573 3.349 8.156 0 3.363-1.116 5.893-3.349 7.59-2.202 1.666-5.265 2.499-9.187 2.499h-5.159v2.357h5.793c.332 0 .603.11.814.33.212.22.317.503.317.848v1.886c0 .346-.105.644-.317.896-.211.22-.482.33-.814.33h-5.793v4.148c0 .346-.121.629-.362.849a1.08 1.08 0 01-.815.33h-6.471zm12.581-18.103c1.237 0 2.202-.33 2.896-.99.724-.691 1.086-1.697 1.086-3.017 0-1.226-.331-2.216-.995-2.97-.664-.754-1.66-1.131-2.987-1.131h-5.114v8.108h5.114zM344.927 164c-.289 0-.539-.1-.749-.3-.184-.2-.276-.457-.276-.771v-3.772h-2.917a.92.92 0 01-.709-.3 1.257 1.257 0 01-.276-.814v-1.714c0-.315.092-.572.276-.772.21-.2.447-.3.709-.3h2.917v-2.143h-2.917c-.262 0-.499-.1-.709-.3a1.196 1.196 0 01-.276-.771v-3.429c0-.314.092-.571.276-.771.21-.2.447-.3.709-.3h2.917v-12.429c0-.314.092-.571.276-.771a.983.983 0 01.749-.343h11.155c3.39 0 6.057.843 8.001 2.529 1.945 1.685 2.917 4.157 2.917 7.414 0 3.057-.972 5.357-2.917 6.9-1.918 1.514-4.585 2.271-8.001 2.271h-4.494v2.143h5.046c.289 0 .525.1.709.3.184.2.276.457.276.772v1.714c0 .314-.092.586-.276.814a.92.92 0 01-.709.3h-5.046v3.772c0 .314-.105.571-.315.771a.92.92 0 01-.709.3h-5.637zm10.958-16.457c1.077 0 1.918-.3 2.522-.9.631-.629.946-1.543.946-2.743 0-1.114-.289-2.014-.867-2.7-.578-.686-1.445-1.029-2.601-1.029h-4.454v7.372h4.454z" fill="#70C05B"/></svg>