<svg width="327" height="158" fill="none" xmlns="http://www.w3.org/2000/svg"><path d="M243.401 32a.988.988 0 01-.669-.262c-.173-.2-.26-.425-.26-.674v-6.78h-6.543a.986.986 0 01-.669-.261c-.173-.2-.26-.425-.26-.675v-2.884c0-.274.087-.499.26-.674.174-.2.397-.3.669-.3h6.543v-6.554c0-.274.087-.499.26-.674a.988.988 0 01.669-.262h3.198c.272 0 .495.087.669.262a.86.86 0 01.297.674v6.555h6.468c.273 0 .496.1.67.3a.856.856 0 01.297.673v2.884a.86.86 0 01-.297.675.904.904 0 01-.67.262h-6.468v6.779a.86.86 0 01-.297.674.904.904 0 01-.669.262h-3.198zm57.621 75c-.384 0-.73-.131-1.037-.393a1.475 1.475 0 01-.403-1.011V95.427h-10.141c-.385 0-.73-.131-1.038-.393a1.474 1.474 0 01-.403-1.012v-4.325c0-.412.134-.75.403-1.012.269-.3.615-.449 1.038-.449h10.141v-9.832c0-.411.134-.749.403-1.01a1.556 1.556 0 011.037-.394h4.956c.422 0 .768.131 1.037.393.307.262.461.6.461 1.011v9.832h10.026c.422 0 .768.15 1.037.45.307.262.461.599.461 1.01v4.326c0 .412-.154.75-.461 1.012-.269.262-.615.393-1.037.393h-10.026v10.169c0 .411-.154.749-.461 1.011-.269.262-.615.393-1.037.393h-4.956zM144.881 50a.719.719 0 01-.468-.17.624.624 0 01-.183-.439v-4.406h-4.579a.721.721 0 01-.469-.17.627.627 0 01-.182-.439v-1.874c0-.179.061-.325.182-.438a.614.614 0 01.469-.195h4.579v-4.26c0-.179.061-.325.183-.439a.719.719 0 01.468-.17h2.238c.191 0 .347.057.468.17a.54.54 0 01.209.439v4.26h4.527c.191 0 .347.065.469.195a.54.54 0 01.208.438v1.874a.54.54 0 01-.208.439.66.66 0 01-.469.17h-4.527v4.406a.54.54 0 01-.209.439.656.656 0 01-.468.17h-2.238zM19.78 9a.443.443 0 01-.3-.118.45.45 0 01-.117-.303v-3.05h-2.945a.444.444 0 01-.3-.119.45.45 0 01-.118-.303V3.809a.41.41 0 01.117-.303.38.38 0 01.301-.135h2.945V.42a.41.41 0 01.117-.303.443.443 0 01.3-.118h1.44c.122 0 .222.04.3.118.09.079.134.18.134.303v2.95h2.911a.38.38 0 01.301.135c.09.078.134.18.134.303v1.298a.386.386 0 01-.134.303.406.406 0 01-.3.118h-2.912v3.05a.386.386 0 01-.134.304.406.406 0 01-.3.118h-1.44zm235.001 127a.474.474 0 01-.301-.105.375.375 0 01-.118-.27v-2.711h-2.944a.476.476 0 01-.301-.105.378.378 0 01-.117-.27v-1.153c0-.11.039-.2.117-.27a.403.403 0 01.301-.12h2.944v-2.621c0-.11.039-.2.118-.27a.474.474 0 01.301-.105h1.438c.123 0 .223.035.301.105.09.07.134.16.134.27v2.621h2.911c.123 0 .223.04.301.12.089.07.134.16.134.27v1.153c0 .11-.045.2-.134.27a.433.433 0 01-.301.105h-2.911v2.711c0 .11-.044.2-.134.27a.433.433 0 01-.301.105h-1.438zm55-118a.474.474 0 01-.301-.105.374.374 0 01-.118-.27v-2.711h-2.944a.476.476 0 01-.301-.105.377.377 0 01-.117-.27v-1.153c0-.11.039-.2.117-.27a.403.403 0 01.301-.12h2.944v-2.622c0-.11.039-.2.118-.27a.474.474 0 01.301-.104h1.438c.123 0 .223.035.301.105.09.07.134.16.134.27v2.621h2.911c.123 0 .223.04.301.12.089.07.134.16.134.27v1.153c0 .11-.045.2-.134.27a.433.433 0 01-.301.105h-2.911v2.711c0 .11-.044.2-.134.27a.433.433 0 01-.301.105h-1.438zm12 132a.44.44 0 01-.301-.118.447.447 0 01-.118-.303v-3.051h-2.944a.442.442 0 01-.301-.118.45.45 0 01-.117-.303v-1.298a.41.41 0 01.117-.303.381.381 0 01.301-.135h2.944v-2.95a.41.41 0 01.118-.303.44.44 0 01.301-.118h1.438c.123 0 .223.039.301.118.09.079.134.18.134.303v2.95h2.911a.38.38 0 01.301.135.385.385 0 01.134.303v1.298a.387.387 0 01-.134.303.404.404 0 01-.301.118h-2.911v3.051a.384.384 0 01-.134.303.404.404 0 01-.301.118h-1.438zm-183-15a.474.474 0 01-.301-.105.375.375 0 01-.118-.27v-2.711h-2.944a.476.476 0 01-.301-.105.378.378 0 01-.117-.27v-1.153c0-.11.039-.2.117-.27a.403.403 0 01.301-.12h2.944v-2.621c0-.11.039-.2.118-.27a.474.474 0 01.301-.105h1.438c.123 0 .223.035.301.105.09.07.134.16.134.27v2.621h2.911c.123 0 .223.04.301.12.089.07.134.16.134.27v1.153c0 .11-.045.2-.134.27a.433.433 0 01-.301.105h-2.911v2.711c0 .11-.044.2-.134.27a.433.433 0 01-.301.105h-1.438zM2.94 158a.376.376 0 01-.234-.079.277.277 0 01-.09-.202v-2.034H.325a.38.38 0 01-.235-.078.28.28 0 01-.091-.203v-.865c0-.082.03-.149.091-.202a.32.32 0 01.234-.09h2.29v-1.966c0-.082.03-.15.091-.202A.376.376 0 012.94 152h1.118c.096 0 .174.026.235.079a.24.24 0 01.104.202v1.966h2.264a.32.32 0 01.234.09c.07.053.104.12.104.202v.865c0 .083-.035.15-.104.203a.347.347 0 01-.234.078H4.398v2.034c0 .082-.035.15-.104.202a.343.343 0 01-.235.079H2.941zm160.562-57c-.31 0-.589-.105-.837-.315a1.176 1.176 0 01-.325-.809v-8.134h-8.178c-.31 0-.589-.105-.837-.315a1.174 1.174 0 01-.325-.809v-3.46c0-.33.108-.6.325-.81.217-.24.496-.36.837-.36h8.178v-7.864c0-.33.109-.6.325-.81a1.26 1.26 0 01.837-.314h3.996c.341 0 .62.105.837.315.247.21.371.479.371.809v7.865h8.086c.341 0 .619.12.836.36.248.21.372.479.372.808v3.461c0 .33-.124.6-.372.809-.217.21-.495.315-.836.315h-8.086v8.134c0 .33-.124.6-.371.809-.217.21-.496.315-.837.315h-3.996z" fill="#F63"/><path d="M185.752 56c-.396 0-.738-.127-1.026-.38-.253-.253-.379-.579-.379-.977v-4.777h-3.997c-.396 0-.72-.127-.972-.38a1.52 1.52 0 01-.378-1.032v-2.171c0-.398.126-.724.378-.977a1.43 1.43 0 01.972-.38h3.997V42.21h-3.997a1.43 1.43 0 01-.972-.38 1.45 1.45 0 01-.378-.977V36.51c0-.398.126-.723.378-.977.288-.253.612-.38.972-.38h3.997V19.411c0-.398.126-.723.379-.977.288-.29.63-.434 1.026-.434h15.286c4.645 0 8.3 1.068 10.965 3.203 2.665 2.135 3.997 5.266 3.997 9.391 0 3.873-1.332 6.786-3.997 8.74-2.629 1.918-6.284 2.877-10.965 2.877h-6.158v2.715h6.914c.396 0 .72.126.972.38.252.253.379.579.379.977v2.171c0 .398-.127.742-.379 1.032-.252.253-.576.38-.972.38h-6.914v4.777c0 .398-.144.724-.432.977-.252.253-.576.38-.972.38h-7.724zm15.016-20.846c1.476 0 2.629-.38 3.457-1.14.864-.796 1.296-1.954 1.296-3.474 0-1.411-.396-2.551-1.188-3.42-.792-.869-1.981-1.303-3.565-1.303h-6.104v9.337h6.104zM281.204 63c-.364 0-.678-.12-.943-.36-.231-.24-.347-.549-.347-.926V57.19h-3.673c-.364 0-.662-.12-.894-.36a1.469 1.469 0 01-.347-.978v-2.057c0-.377.116-.685.347-.925.265-.24.563-.36.894-.36h3.673v-2.572h-3.673c-.331 0-.629-.12-.894-.36a1.4 1.4 0 01-.347-.926v-4.114c0-.377.116-.686.347-.926.265-.24.563-.36.894-.36h3.673V28.337c0-.377.116-.686.347-.926.265-.274.579-.411.943-.411h14.047c4.269 0 7.627 1.011 10.076 3.034 2.449 2.023 3.673 4.989 3.673 8.897 0 3.669-1.224 6.429-3.673 8.28-2.416 1.818-5.774 2.726-10.076 2.726h-5.658v2.572h6.353c.364 0 .662.12.893.36.232.24.348.548.348.925v2.057c0 .378-.116.703-.348.978-.231.24-.529.36-.893.36h-6.353v4.525c0 .377-.133.686-.397.926-.232.24-.53.36-.894.36h-7.098zm13.799-19.749c1.357 0 2.415-.36 3.177-1.08.794-.754 1.191-1.851 1.191-3.291 0-1.337-.364-2.417-1.092-3.24-.728-.823-1.82-1.234-3.276-1.234h-5.609v8.845h5.609zM276.015 132a.888.888 0 01-.611-.23.812.812 0 01-.224-.591v-2.892h-2.377a.774.774 0 01-.578-.23.928.928 0 01-.225-.624v-1.314c0-.241.075-.439.225-.592a.845.845 0 01.578-.23h2.377v-1.643h-2.377a.84.84 0 01-.578-.23.884.884 0 01-.225-.591v-2.629c0-.241.075-.438.225-.591a.845.845 0 01.578-.23h2.377v-9.529c0-.241.075-.438.224-.591a.828.828 0 01.611-.263h9.089c2.762 0 4.935.646 6.519 1.939 1.585 1.292 2.377 3.187 2.377 5.684 0 2.344-.792 4.107-2.377 5.29-1.563 1.161-3.736 1.741-6.519 1.741h-3.662v1.643h4.111c.236 0 .429.077.578.23.15.153.225.351.225.592v1.314a.928.928 0 01-.225.624.772.772 0 01-.578.23h-4.111v2.892a.754.754 0 01-.257.591.772.772 0 01-.578.23h-4.592zm8.928-12.617c.878 0 1.563-.23 2.056-.69.513-.482.77-1.183.77-2.103 0-.854-.235-1.544-.706-2.07-.471-.526-1.178-.789-2.12-.789h-3.629v5.652h3.629zM182.285 131a.685.685 0 01-.5-.21.793.793 0 01-.184-.54v-2.64h-1.944a.6.6 0 01-.473-.21.908.908 0 01-.184-.57v-1.2c0-.22.061-.4.184-.54.14-.14.298-.21.473-.21h1.944v-1.5h-1.944a.654.654 0 01-.473-.21.863.863 0 01-.184-.54v-2.4c0-.22.061-.4.184-.54.14-.14.298-.21.473-.21h1.944v-8.7c0-.22.062-.4.184-.54a.646.646 0 01.5-.24h7.436c2.26 0 4.038.59 5.334 1.77 1.297 1.18 1.945 2.91 1.945 5.19 0 2.14-.648 3.75-1.945 4.83-1.278 1.06-3.056 1.59-5.334 1.59h-2.995v1.5h3.363a.6.6 0 01.473.21c.123.14.184.32.184.54v1.2c0 .22-.061.41-.184.57a.6.6 0 01-.473.21h-3.363v2.64c0 .22-.071.4-.211.54a.599.599 0 01-.473.21h-3.757zm7.305-11.52c.718 0 1.279-.21 1.682-.63.42-.44.63-1.08.63-1.92 0-.78-.193-1.41-.578-1.89-.385-.48-.963-.72-1.734-.72h-2.97v5.16h2.97z" fill="#70C05B"/></svg>