<svg width="1440" height="200" fill="none" xmlns="http://www.w3.org/2000/svg"><g style="mix-blend-mode:multiply" opacity=".3"><path d="M13.039 19.993L-15.196-5.324c-.592-.53-1.527-.46-2.007.184-5.718 7.625-4.166 19.054 3.811 26.207 7.977 7.152 19.505 7.456 26.465.94.585-.549.557-1.484-.034-2.014zm146.182 172.803l28.235 25.317c.592.53 1.527.459 2.006-.185 5.718-7.624 4.167-19.053-3.811-26.206-7.977-7.153-19.504-7.456-26.465-.94-.585.548-.557 1.483.035 2.014zm31.858-123.684l-29.364-23.998c-.616-.503-1.547-.39-1.996.276-5.363 7.878-3.29 19.224 5.006 26.004 8.296 6.78 19.825 6.556 26.48-.272.56-.575.489-1.507-.126-2.01zM.597 152.597l26.709-26.922c.56-.564.535-1.502-.083-2.013-7.327-6.095-18.82-5.122-26.365 2.484-7.546 7.607-8.43 19.104-2.274 26.384.518.613 1.454.631 2.013.067z" fill="#F63"/><path d="M-5.084 91.323c-5.568.591-11.043-7.984-12.23-19.153C-18.5 61-14.948 51.467-9.38 50.876c5.568-.592 11.043 7.983 12.23 19.153C4.035 81.198.483 90.732-5.085 91.323zm185.655 19.258c5.568-.591 11.043 7.984 12.229 19.153 1.187 11.169-2.365 20.703-7.933 21.295-5.568.591-11.043-7.984-12.229-19.153-1.187-11.17 2.365-20.703 7.933-21.295zM119.856 4.906c3.62 2.603 1.241 12.106-5.315 21.227-6.556 9.12-14.805 14.403-18.426 11.8-3.62-2.602-1.241-12.105 5.314-21.226 6.556-9.12 14.806-14.403 18.427-11.8zM65.978 159.895c-4.433-.482-7.041-9.926-5.825-21.092 1.216-11.166 5.795-19.826 10.228-19.343 4.433.482 7.04 9.925 5.825 21.091-1.216 11.166-5.796 19.827-10.228 19.344z" fill="#FCA21C"/><path fill-rule="evenodd" clip-rule="evenodd" d="M68.33 64.627a5.758 5.758 0 01-1.341 8.043c-5.845 4.163-13.711 5.399-21.162 2.978-7.45-2.42-13.086-8.045-15.368-14.846a5.758 5.758 0 013.642-7.297 5.785 5.785 0 017.313 3.645c1.076 3.21 3.886 6.202 7.977 7.531 4.092 1.33 8.124.56 10.88-1.403a5.785 5.785 0 018.059 1.349zm42.247 70.972a5.758 5.758 0 011.341-8.043c5.845-4.163 13.711-5.399 21.162-2.979 7.45 2.421 13.086 8.045 15.368 14.847a5.759 5.759 0 01-3.642 7.296 5.784 5.784 0 01-7.312-3.644c-1.077-3.21-3.887-6.202-7.978-7.531-4.092-1.33-8.124-.561-10.881 1.403a5.784 5.784 0 01-8.058-1.349zM168.272-.776a5.758 5.758 0 014.775-6.61c7.086-1.133 14.682 1.253 20.281 6.732 5.6 5.478 8.151 13.02 7.174 20.128a5.758 5.758 0 01-6.504 4.919 5.785 5.785 0 01-4.932-6.514c.461-3.354-.727-7.282-3.802-10.29-3.076-3.01-7.029-4.111-10.372-3.577a5.785 5.785 0 01-6.62-4.788zM78.698 200.053a5.758 5.758 0 01-.006 8.154c-5.084 5.064-12.642 7.572-20.388 6.403-7.746-1.168-14.227-5.793-17.592-12.129a5.758 5.758 0 012.398-7.794 5.785 5.785 0 017.811 2.398c1.588 2.99 4.85 5.481 9.103 6.123 4.255.641 8.106-.778 10.504-3.166a5.785 5.785 0 018.17.011z" fill="#70C05B"/><path d="M44.724 3.958a4.886 4.886 0 011.336-6.78l23.737-15.92a4.886 4.886 0 016.78 1.336l4.694 7a4.886 4.886 0 01-1.336 6.778L56.198 12.294a4.886 4.886 0 01-6.78-1.337l-4.694-6.999zm53.634 173.533a4.886 4.886 0 013.731-5.816l27.924-6.096a4.886 4.886 0 015.816 3.731l1.798 8.234a4.887 4.887 0 01-3.732 5.816l-27.924 6.096a4.886 4.886 0 01-5.816-3.731l-1.797-8.234zm28.138-78.35a4.885 4.885 0 01-6.898-.393l-19.026-21.33a4.885 4.885 0 01.394-6.899l6.289-5.61a4.887 4.887 0 016.899.394l19.026 21.33a4.886 4.886 0 01-.394 6.898l-6.29 5.61zM-6.341 173.558A4.885 4.885 0 01-.7 177.547l4.835 28.17a4.886 4.886 0 01-3.988 5.642l-8.307 1.426a4.886 4.886 0 01-5.642-3.989l-4.836-28.17a4.885 4.885 0 013.989-5.642l8.307-1.426z" fill="#1CB9FC"/><path d="M265.038 19.993L236.803-5.324c-.591-.53-1.526-.46-2.006.184-5.718 7.625-4.166 19.054 3.811 26.207 7.977 7.152 19.505 7.456 26.465.94a1.37 1.37 0 00-.035-2.014zm146.183 172.803l28.235 25.317c.592.53 1.527.459 2.006-.185 5.718-7.624 4.167-19.053-3.811-26.206-7.977-7.153-19.504-7.456-26.465-.94-.585.548-.557 1.483.035 2.014zm31.858-123.684l-29.364-23.998c-.616-.503-1.547-.39-1.996.276-5.363 7.878-3.29 19.224 5.006 26.004 8.296 6.78 19.825 6.556 26.48-.272.56-.575.489-1.507-.126-2.01zm-190.482 83.485l26.709-26.922c.559-.564.535-1.502-.083-2.013-7.327-6.095-18.82-5.122-26.365 2.484-7.546 7.607-8.431 19.104-2.274 26.384.518.613 1.454.631 2.013.067z" fill="#F63"/><path d="M246.916 91.323c-5.568.591-11.043-7.984-12.23-19.153-1.186-11.17 2.366-20.703 7.934-21.294 5.568-.592 11.043 7.983 12.229 19.153 1.187 11.169-2.365 20.703-7.933 21.294zm185.655 19.258c5.568-.591 11.043 7.984 12.229 19.153 1.187 11.169-2.365 20.703-7.933 21.295-5.568.591-11.043-7.984-12.229-19.153-1.187-11.17 2.365-20.703 7.933-21.295zM371.856 4.906c3.62 2.603 1.241 12.106-5.315 21.227-6.556 9.12-14.805 14.403-18.426 11.8-3.621-2.602-1.242-12.105 5.314-21.226 6.556-9.12 14.806-14.403 18.427-11.8zm-53.879 154.989c-4.432-.482-7.04-9.926-5.824-21.092 1.216-11.166 5.795-19.826 10.228-19.343 4.433.482 7.041 9.925 5.825 21.091-1.216 11.166-5.796 19.827-10.229 19.344z" fill="#FCA21C"/><path fill-rule="evenodd" clip-rule="evenodd" d="M320.33 64.627a5.759 5.759 0 01-1.341 8.043c-5.845 4.163-13.711 5.399-21.162 2.978-7.45-2.42-13.086-8.045-15.368-14.846a5.759 5.759 0 013.642-7.297 5.786 5.786 0 017.313 3.645c1.076 3.21 3.886 6.202 7.977 7.531 4.092 1.33 8.124.56 10.881-1.403a5.785 5.785 0 018.058 1.349zm42.247 70.972a5.758 5.758 0 011.341-8.043c5.845-4.163 13.711-5.399 21.162-2.979 7.45 2.421 13.086 8.045 15.368 14.847a5.759 5.759 0 01-3.642 7.296 5.785 5.785 0 01-7.313-3.644c-1.076-3.21-3.886-6.202-7.977-7.531-4.092-1.33-8.124-.561-10.881 1.403a5.784 5.784 0 01-8.058-1.349zM420.272-.776a5.758 5.758 0 014.775-6.61c7.086-1.133 14.682 1.253 20.281 6.732 5.6 5.478 8.151 13.02 7.174 20.128a5.758 5.758 0 01-6.504 4.919 5.785 5.785 0 01-4.932-6.514c.461-3.354-.727-7.282-3.802-10.29-3.076-3.01-7.029-4.111-10.372-3.577a5.785 5.785 0 01-6.62-4.788zm-89.574 200.829a5.757 5.757 0 01-.006 8.154c-5.084 5.064-12.642 7.572-20.388 6.403-7.746-1.168-14.227-5.793-17.592-12.129a5.759 5.759 0 012.398-7.794 5.785 5.785 0 017.811 2.398c1.588 2.99 4.849 5.481 9.103 6.123 4.255.641 8.106-.778 10.504-3.166a5.784 5.784 0 018.17.011z" fill="#70C05B"/><path d="M296.724 3.958a4.886 4.886 0 011.336-6.78l23.737-15.92a4.887 4.887 0 016.78 1.336l4.694 7a4.886 4.886 0 01-1.336 6.778l-23.737 15.922a4.886 4.886 0 01-6.779-1.337l-4.695-6.999zm53.634 173.533a4.886 4.886 0 013.731-5.816l27.924-6.096a4.886 4.886 0 015.816 3.731l1.798 8.234a4.887 4.887 0 01-3.732 5.816l-27.924 6.096a4.886 4.886 0 01-5.816-3.731l-1.797-8.234zm28.138-78.35a4.885 4.885 0 01-6.898-.393l-19.026-21.33a4.886 4.886 0 01.394-6.899l6.289-5.61a4.887 4.887 0 016.899.394l19.026 21.33a4.886 4.886 0 01-.394 6.898l-6.29 5.61zm-132.837 74.417a4.886 4.886 0 015.642 3.989l4.835 28.17a4.886 4.886 0 01-3.988 5.642l-8.307 1.426a4.885 4.885 0 01-5.642-3.989l-4.836-28.17a4.886 4.886 0 013.989-5.642l8.307-1.426z" fill="#1CB9FC"/><path d="M517.039 19.993L488.803-5.324c-.591-.53-1.526-.46-2.006.184-5.718 7.625-4.166 19.054 3.811 26.207 7.977 7.152 19.505 7.456 26.465.94.585-.549.557-1.484-.034-2.014zm146.182 172.803l28.235 25.317c.592.53 1.527.459 2.006-.185 5.718-7.624 4.167-19.053-3.811-26.206-7.977-7.153-19.504-7.456-26.465-.94-.585.548-.557 1.483.035 2.014zm31.858-123.684l-29.364-23.998c-.616-.503-1.547-.39-1.996.276-5.363 7.878-3.29 19.224 5.006 26.004 8.296 6.78 19.825 6.556 26.48-.272.56-.575.489-1.507-.126-2.01zm-190.482 83.485l26.709-26.922c.559-.564.535-1.502-.083-2.013-7.327-6.095-18.82-5.122-26.365 2.484-7.546 7.607-8.431 19.104-2.274 26.384.518.613 1.454.631 2.013.067z" fill="#F63"/><path d="M498.916 91.323c-5.568.591-11.043-7.984-12.23-19.153-1.186-11.17 2.366-20.703 7.934-21.294 5.568-.592 11.043 7.983 12.229 19.153 1.187 11.169-2.365 20.703-7.933 21.294zm185.655 19.258c5.568-.591 11.043 7.984 12.229 19.153 1.187 11.169-2.365 20.703-7.933 21.295-5.568.591-11.043-7.984-12.229-19.153-1.187-11.17 2.365-20.703 7.933-21.295zM623.856 4.906c3.62 2.603 1.241 12.106-5.315 21.227-6.556 9.12-14.805 14.403-18.426 11.8-3.621-2.602-1.242-12.105 5.314-21.226 6.556-9.12 14.806-14.403 18.427-11.8zm-53.879 154.989c-4.432-.482-7.04-9.926-5.824-21.092 1.216-11.166 5.795-19.826 10.228-19.343 4.433.482 7.041 9.925 5.825 21.091-1.216 11.166-5.796 19.827-10.229 19.344z" fill="#FCA21C"/><path fill-rule="evenodd" clip-rule="evenodd" d="M572.33 64.627a5.759 5.759 0 01-1.341 8.043c-5.845 4.163-13.711 5.399-21.162 2.978-7.45-2.42-13.086-8.045-15.368-14.846a5.759 5.759 0 013.642-7.297 5.786 5.786 0 017.313 3.645c1.076 3.21 3.886 6.202 7.977 7.531 4.092 1.33 8.124.56 10.881-1.403a5.785 5.785 0 018.058 1.349zm42.247 70.972a5.758 5.758 0 011.341-8.043c5.845-4.163 13.711-5.399 21.162-2.979 7.45 2.421 13.086 8.045 15.368 14.847a5.759 5.759 0 01-3.642 7.296 5.785 5.785 0 01-7.313-3.644c-1.076-3.21-3.886-6.202-7.977-7.531-4.092-1.33-8.124-.561-10.881 1.403a5.784 5.784 0 01-8.058-1.349zM672.272-.776a5.758 5.758 0 014.775-6.61c7.086-1.133 14.682 1.253 20.281 6.732 5.6 5.478 8.151 13.02 7.174 20.128a5.758 5.758 0 01-6.504 4.919 5.785 5.785 0 01-4.932-6.514c.461-3.354-.727-7.282-3.802-10.29-3.076-3.01-7.029-4.111-10.372-3.577a5.785 5.785 0 01-6.62-4.788zm-89.574 200.829a5.757 5.757 0 01-.006 8.154c-5.084 5.064-12.642 7.572-20.388 6.403-7.746-1.168-14.227-5.793-17.592-12.129a5.759 5.759 0 012.398-7.794 5.785 5.785 0 017.811 2.398c1.588 2.99 4.849 5.481 9.103 6.123 4.255.641 8.106-.778 10.504-3.166a5.784 5.784 0 018.17.011z" fill="#70C05B"/><path d="M548.724 3.958a4.886 4.886 0 011.336-6.78l23.737-15.92a4.887 4.887 0 016.78 1.336l4.694 7a4.886 4.886 0 01-1.336 6.778l-23.737 15.922a4.886 4.886 0 01-6.779-1.337l-4.695-6.999zm53.634 173.533a4.886 4.886 0 013.731-5.816l27.924-6.096a4.886 4.886 0 015.816 3.731l1.798 8.234a4.887 4.887 0 01-3.732 5.816l-27.924 6.096a4.886 4.886 0 01-5.816-3.731l-1.797-8.234zm28.138-78.35a4.885 4.885 0 01-6.898-.393l-19.026-21.33a4.886 4.886 0 01.394-6.899l6.289-5.61a4.887 4.887 0 016.899.394l19.026 21.33a4.886 4.886 0 01-.394 6.898l-6.29 5.61zm-132.837 74.417a4.886 4.886 0 015.642 3.989l4.835 28.17a4.886 4.886 0 01-3.988 5.642l-8.307 1.426a4.885 4.885 0 01-5.642-3.989l-4.836-28.17a4.886 4.886 0 013.989-5.642l8.307-1.426z" fill="#1CB9FC"/><path d="M769.039 19.993L740.803-5.324c-.591-.53-1.526-.46-2.006.184-5.718 7.625-4.166 19.054 3.811 26.207 7.977 7.152 19.505 7.456 26.465.94.585-.549.557-1.484-.034-2.014zm146.182 172.803l28.235 25.317c.592.53 1.527.459 2.006-.185 5.718-7.624 4.167-19.053-3.811-26.206-7.977-7.153-19.504-7.456-26.465-.94-.585.548-.557 1.483.035 2.014zm31.858-123.684l-29.364-23.998c-.616-.503-1.547-.39-1.996.276-5.363 7.878-3.29 19.224 5.006 26.004 8.296 6.78 19.825 6.556 26.48-.272.56-.575.489-1.507-.126-2.01zm-190.482 83.485l26.709-26.922c.559-.564.535-1.502-.083-2.013-7.327-6.095-18.82-5.122-26.365 2.484-7.546 7.607-8.431 19.104-2.274 26.384.518.613 1.454.631 2.013.067z" fill="#F63"/><path d="M750.916 91.323c-5.568.591-11.043-7.984-12.23-19.153-1.186-11.17 2.366-20.703 7.934-21.294 5.568-.592 11.043 7.983 12.229 19.153 1.187 11.169-2.365 20.703-7.933 21.294zm185.655 19.258c5.568-.591 11.043 7.984 12.229 19.153 1.187 11.169-2.365 20.703-7.933 21.295-5.568.591-11.043-7.984-12.229-19.153-1.187-11.17 2.365-20.703 7.933-21.295zM875.856 4.906c3.62 2.603 1.241 12.106-5.315 21.227-6.556 9.12-14.805 14.403-18.426 11.8-3.621-2.602-1.242-12.105 5.314-21.226 6.556-9.12 14.806-14.403 18.427-11.8zm-53.879 154.989c-4.432-.482-7.04-9.926-5.824-21.092 1.216-11.166 5.795-19.826 10.228-19.343 4.433.482 7.041 9.925 5.825 21.091-1.216 11.166-5.796 19.827-10.229 19.344z" fill="#FCA21C"/><path fill-rule="evenodd" clip-rule="evenodd" d="M824.33 64.627a5.759 5.759 0 01-1.341 8.043c-5.845 4.163-13.711 5.399-21.162 2.978-7.45-2.42-13.086-8.045-15.368-14.846a5.759 5.759 0 013.642-7.297 5.786 5.786 0 017.313 3.645c1.076 3.21 3.886 6.202 7.977 7.531 4.092 1.33 8.124.56 10.881-1.403a5.785 5.785 0 018.058 1.349zm42.247 70.972a5.758 5.758 0 011.341-8.043c5.845-4.163 13.711-5.399 21.162-2.979 7.45 2.421 13.086 8.045 15.368 14.847a5.759 5.759 0 01-3.642 7.296 5.785 5.785 0 01-7.313-3.644c-1.076-3.21-3.886-6.202-7.977-7.531-4.092-1.33-8.124-.561-10.881 1.403a5.784 5.784 0 01-8.058-1.349zM924.272-.776a5.758 5.758 0 014.775-6.61c7.086-1.133 14.682 1.253 20.281 6.732 5.6 5.478 8.151 13.02 7.174 20.128a5.758 5.758 0 01-6.504 4.919 5.785 5.785 0 01-4.932-6.514c.461-3.354-.727-7.282-3.802-10.29-3.076-3.01-7.029-4.111-10.372-3.577a5.785 5.785 0 01-6.62-4.788zm-89.574 200.829a5.757 5.757 0 01-.006 8.154c-5.084 5.064-12.642 7.572-20.388 6.403-7.746-1.168-14.227-5.793-17.592-12.129a5.759 5.759 0 012.398-7.794 5.785 5.785 0 017.811 2.398c1.588 2.99 4.849 5.481 9.103 6.123 4.255.641 8.106-.778 10.504-3.166a5.784 5.784 0 018.17.011z" fill="#70C05B"/><path d="M800.724 3.958a4.886 4.886 0 011.336-6.78l23.737-15.92a4.887 4.887 0 016.78 1.336l4.694 7a4.886 4.886 0 01-1.336 6.778l-23.737 15.922a4.886 4.886 0 01-6.779-1.337l-4.695-6.999zm53.634 173.533a4.886 4.886 0 013.731-5.816l27.924-6.096a4.886 4.886 0 015.816 3.731l1.798 8.234a4.887 4.887 0 01-3.732 5.816l-27.924 6.096a4.886 4.886 0 01-5.816-3.731l-1.797-8.234zm28.138-78.35a4.885 4.885 0 01-6.898-.393l-19.026-21.33a4.886 4.886 0 01.394-6.899l6.289-5.61a4.887 4.887 0 016.899.394l19.026 21.33a4.886 4.886 0 01-.394 6.898l-6.29 5.61zm-132.837 74.417a4.886 4.886 0 015.642 3.989l4.835 28.17a4.886 4.886 0 01-3.988 5.642l-8.307 1.426a4.886 4.886 0 01-5.642-3.989l-4.836-28.17a4.886 4.886 0 013.989-5.642l8.307-1.426z" fill="#1CB9FC"/><path d="M1021.04 19.993L992.803-5.324c-.591-.53-1.526-.46-2.006.184-5.718 7.625-4.166 19.054 3.811 26.207 7.982 7.152 19.502 7.456 26.462.94.59-.549.56-1.484-.03-2.014zm146.18 172.803l28.24 25.317c.59.53 1.52.459 2-.185 5.72-7.624 4.17-19.053-3.81-26.206-7.98-7.153-19.5-7.456-26.46-.94-.59.548-.56 1.483.03 2.014zm31.86-123.684l-29.37-23.998c-.61-.503-1.54-.39-1.99.276-5.36 7.878-3.29 19.224 5 26.004 8.3 6.78 19.83 6.556 26.49-.272.56-.575.48-1.507-.13-2.01zm-190.48 83.485l26.71-26.922c.56-.564.53-1.502-.09-2.013-7.32-6.095-18.82-5.122-26.36 2.484-7.55 7.607-8.43 19.104-2.28 26.384.52.613 1.46.631 2.02.067z" fill="#F63"/><path d="M1002.92 91.323c-5.572.591-11.047-7.984-12.234-19.153-1.186-11.17 2.366-20.703 7.934-21.294 5.57-.592 11.04 7.983 12.23 19.153 1.19 11.169-2.37 20.703-7.93 21.294zm185.65 19.258c5.57-.591 11.04 7.984 12.23 19.153 1.19 11.169-2.37 20.703-7.93 21.295-5.57.591-11.05-7.984-12.23-19.153-1.19-11.17 2.36-20.703 7.93-21.295zM1127.86 4.906c3.62 2.603 1.24 12.106-5.32 21.227-6.55 9.12-14.8 14.403-18.43 11.8-3.62-2.602-1.24-12.105 5.32-21.226 6.56-9.12 14.8-14.403 18.43-11.8zm-53.88 154.989c-4.44-.482-7.04-9.926-5.83-21.092 1.22-11.166 5.8-19.826 10.23-19.343 4.43.482 7.04 9.925 5.83 21.091-1.22 11.166-5.8 19.827-10.23 19.344z" fill="#FCA21C"/><path fill-rule="evenodd" clip-rule="evenodd" d="M1076.33 64.627a5.767 5.767 0 01-1.34 8.043c-5.85 4.163-13.71 5.399-21.16 2.978-7.45-2.42-13.09-8.045-15.37-14.846a5.764 5.764 0 013.64-7.297 5.78 5.78 0 017.31 3.645c1.08 3.21 3.89 6.202 7.98 7.531 4.09 1.33 8.12.56 10.88-1.403a5.786 5.786 0 018.06 1.349zm42.25 70.972a5.749 5.749 0 011.34-8.043c5.84-4.163 13.71-5.399 21.16-2.979 7.45 2.421 13.09 8.045 15.37 14.847a5.764 5.764 0 01-3.64 7.296 5.793 5.793 0 01-7.32-3.644c-1.07-3.21-3.88-6.202-7.97-7.531-4.1-1.33-8.13-.561-10.88 1.403a5.785 5.785 0 01-8.06-1.349zM1176.27-.776a5.76 5.76 0 014.78-6.61c7.08-1.133 14.68 1.253 20.28 6.732 5.6 5.478 8.15 13.02 7.17 20.128a5.751 5.751 0 01-6.5 4.919c-3.16-.44-5.37-3.357-4.93-6.514.46-3.354-.73-7.282-3.81-10.29-3.07-3.01-7.03-4.111-10.37-3.577a5.789 5.789 0 01-6.62-4.788zm-89.57 200.829a5.76 5.76 0 01-.01 8.154c-5.08 5.064-12.64 7.572-20.39 6.403-7.74-1.168-14.22-5.793-17.59-12.129a5.762 5.762 0 012.4-7.794c2.82-1.49 6.32-.417 7.81 2.398 1.59 2.99 4.85 5.481 9.1 6.123 4.26.641 8.11-.778 10.51-3.166a5.784 5.784 0 018.17.011z" fill="#70C05B"/><path d="M1052.72 3.958a4.89 4.89 0 011.34-6.78l23.74-15.92a4.888 4.888 0 016.78 1.336l4.69 7a4.888 4.888 0 01-1.33 6.778l-23.74 15.922a4.886 4.886 0 01-6.78-1.337l-4.7-6.999zm53.64 173.533a4.88 4.88 0 013.73-5.816l27.92-6.096a4.89 4.89 0 015.82 3.731l1.8 8.234a4.895 4.895 0 01-3.73 5.816l-27.93 6.096a4.875 4.875 0 01-5.81-3.731l-1.8-8.234zm28.14-78.35c-2.02 1.797-5.11 1.62-6.9-.393l-19.03-21.33a4.886 4.886 0 01.4-6.899l6.29-5.61a4.876 4.876 0 016.89.394l19.03 21.33a4.886 4.886 0 01-.39 6.898l-6.29 5.61zm-132.84 74.417a4.885 4.885 0 015.64 3.989l4.84 28.17a4.892 4.892 0 01-3.99 5.642l-8.309 1.426a4.885 4.885 0 01-5.642-3.989l-4.836-28.17a4.886 4.886 0 013.989-5.642l8.308-1.426z" fill="#1CB9FC"/><path d="M1273.04 19.993L1244.8-5.324c-.59-.53-1.52-.46-2 .184-5.72 7.625-4.17 19.054 3.81 26.207 7.98 7.152 19.5 7.456 26.46.94.59-.549.56-1.484-.03-2.014zm146.18 172.803l28.24 25.317c.59.53 1.52.459 2-.185 5.72-7.624 4.17-19.053-3.81-26.206-7.98-7.153-19.5-7.456-26.46-.94-.59.548-.56 1.483.03 2.014zm31.86-123.684l-29.37-23.998c-.61-.503-1.54-.39-1.99.276-5.36 7.878-3.29 19.224 5 26.004 8.3 6.78 19.83 6.556 26.49-.272.55-.575.48-1.507-.13-2.01zm-190.48 83.485l26.71-26.922c.56-.564.53-1.502-.09-2.013-7.32-6.095-18.82-5.122-26.36 2.484-7.55 7.607-8.43 19.104-2.28 26.384.52.613 1.46.631 2.02.067z" fill="#F63"/><path d="M1254.92 91.323c-5.57.591-11.05-7.984-12.23-19.153-1.19-11.17 2.36-20.703 7.93-21.294 5.57-.592 11.04 7.983 12.23 19.153 1.19 11.169-2.37 20.703-7.93 21.294zm185.65 19.258c5.57-.591 11.04 7.984 12.23 19.153 1.19 11.169-2.37 20.703-7.93 21.295-5.57.591-11.05-7.984-12.23-19.153-1.19-11.17 2.36-20.703 7.93-21.295zM1379.86 4.906c3.62 2.603 1.24 12.106-5.32 21.227-6.55 9.12-14.8 14.403-18.43 11.8-3.62-2.602-1.24-12.105 5.32-21.226 6.56-9.12 14.8-14.403 18.43-11.8zm-53.88 154.989c-4.44-.482-7.04-9.926-5.83-21.092 1.22-11.166 5.8-19.826 10.23-19.343 4.43.482 7.04 9.925 5.83 21.091-1.22 11.166-5.8 19.827-10.23 19.344z" fill="#FCA21C"/><path fill-rule="evenodd" clip-rule="evenodd" d="M1328.33 64.627a5.767 5.767 0 01-1.34 8.043c-5.85 4.163-13.71 5.399-21.16 2.978-7.45-2.42-13.09-8.045-15.37-14.846a5.764 5.764 0 013.64-7.297 5.78 5.78 0 017.31 3.645c1.08 3.21 3.89 6.202 7.98 7.531 4.09 1.33 8.12.56 10.88-1.403a5.786 5.786 0 018.06 1.349zm42.25 70.972a5.749 5.749 0 011.34-8.043c5.84-4.163 13.71-5.399 21.16-2.979 7.45 2.421 13.09 8.045 15.37 14.847a5.764 5.764 0 01-3.64 7.296 5.793 5.793 0 01-7.32-3.644c-1.07-3.21-3.88-6.202-7.97-7.531-4.1-1.33-8.13-.561-10.88 1.403a5.785 5.785 0 01-8.06-1.349zM1428.27-.776a5.76 5.76 0 014.78-6.61c7.08-1.133 14.68 1.253 20.28 6.732 5.6 5.478 8.15 13.02 7.17 20.128a5.751 5.751 0 01-6.5 4.919c-3.16-.44-5.37-3.357-4.93-6.514.46-3.354-.73-7.282-3.81-10.29-3.07-3.01-7.03-4.111-10.37-3.577a5.789 5.789 0 01-6.62-4.788zm-89.57 200.829a5.76 5.76 0 01-.01 8.154c-5.08 5.064-12.64 7.572-20.39 6.403-7.74-1.168-14.22-5.793-17.59-12.129a5.762 5.762 0 012.4-7.794c2.82-1.49 6.32-.417 7.81 2.398 1.59 2.99 4.85 5.481 9.1 6.123 4.26.641 8.11-.778 10.51-3.166a5.784 5.784 0 018.17.011z" fill="#70C05B"/><path d="M1304.72 3.958a4.89 4.89 0 011.34-6.78l23.74-15.92a4.888 4.888 0 016.78 1.336l4.69 7a4.888 4.888 0 01-1.33 6.778l-23.74 15.922a4.886 4.886 0 01-6.78-1.337l-4.7-6.999zm53.64 173.533a4.88 4.88 0 013.73-5.816l27.92-6.096a4.89 4.89 0 015.82 3.731l1.8 8.234a4.895 4.895 0 01-3.73 5.816l-27.93 6.096a4.875 4.875 0 01-5.81-3.731l-1.8-8.234zm28.14-78.35c-2.02 1.797-5.11 1.62-6.9-.393l-19.03-21.33a4.886 4.886 0 01.4-6.899l6.29-5.61a4.876 4.876 0 016.89.394l19.03 21.33a4.886 4.886 0 01-.39 6.898l-6.29 5.61zm-132.84 74.417a4.885 4.885 0 015.64 3.989l4.84 28.17a4.892 4.892 0 01-3.99 5.642l-8.31 1.426a4.886 4.886 0 01-5.64-3.989l-4.84-28.17a4.89 4.89 0 013.99-5.642l8.31-1.426z" fill="#1CB9FC"/></g></svg>