<svg width="24" height="24" fill="none" xmlns="http://www.w3.org/2000/svg"><path fill-rule="evenodd" clip-rule="evenodd" d="M5.5 21a2.5 2.5 0 115 0 2.5 2.5 0 01-5 0zM8 19.5a1.5 1.5 0 100 3 1.5 1.5 0 000-3zm9.5 1.5a2.5 2.5 0 115 0 2.5 2.5 0 01-5 0zm2.5-1.5a1.5 1.5 0 100 3 1.5 1.5 0 000-3zM1 .5a.5.5 0 000 1h3.58c.758 4.291 1.523 8.564 2.17 12.87a2.5 2.5 0 002.472 2.13H19.36a2.5 2.5 0 002.451-2.01l1.44-7.196A1.5 1.5 0 0021.778 5.5H7.16a1.49 1.49 0 00-.816.24L5.492.914A.5.5 0 005 .5H1zm5.666 6.574A.5.5 0 017.16 6.5h14.62a.5.5 0 01.49.598l-1.44 7.196a1.5 1.5 0 01-1.47 1.206H9.222a1.5 1.5 0 01-1.484-1.277L6.666 7.074z" fill="#414141"/></svg>