<svg width="0" height="0" class="hidden"><symbol fill="none" xmlns="http://www.w3.org/2000/svg" viewBox="0 0 24 24" id="basket"><path fill-rule="evenodd" clip-rule="evenodd" d="M5.5 21a2.5 2.5 0 115 0 2.5 2.5 0 01-5 0zM8 19.5a1.5 1.5 0 100 3 1.5 1.5 0 000-3zm9.5 1.5a2.5 2.5 0 115 0 2.5 2.5 0 01-5 0zm2.5-1.5a1.5 1.5 0 100 3 1.5 1.5 0 000-3zM1 .5a.5.5 0 000 1h3.58c.758 4.291 1.523 8.564 2.17 12.87a2.5 2.5 0 002.472 2.13H19.36a2.5 2.5 0 002.451-2.01l1.44-7.196A1.5 1.5 0 0021.778 5.5H7.16a1.49 1.49 0 00-.816.24L5.492.914A.5.5 0 005 .5H1zm5.666 6.574A.5.5 0 017.16 6.5h14.62a.5.5 0 01.49.598l-1.44 7.196a1.5 1.5 0 01-1.47 1.206H9.222a1.5 1.5 0 01-1.484-1.277L6.666 7.074z" fill="#414141"/></symbol><symbol fill="none" xmlns="http://www.w3.org/2000/svg" viewBox="0 0 23 20" id="favorites"><path fill-rule="evenodd" clip-rule="evenodd" d="M12.205 2.256a6 6 0 118.487 8.488l-8.84 8.84a.5.5 0 01-.707 0l-8.84-8.84a6.001 6.001 0 118.487-8.488l.706.707.707-.707zm4.243-.758a5 5 0 00-3.536 1.465l-1.06 1.06a.5.5 0 01-.707 0l-1.06-1.06a5.001 5.001 0 10-7.073 7.073l8.486 8.487 8.487-8.487a5 5 0 00-3.537-8.538z" fill="#414141"/></symbol><symbol fill="none" xmlns="http://www.w3.org/2000/svg" viewBox="0 0 24 24" id="orders"><path fill-rule="evenodd" clip-rule="evenodd" d="M11.332 1.898l-7.998 4h-.002A1.5 1.5 0 002.5 7.24v9.523a1.5 1.5 0 00.824 1.35l8 4a1.5 1.5 0 001.342 0l8-4h.002a1.5 1.5 0 00.832-1.343V7.24a1.5 1.5 0 00-.832-1.342h-.002l-7.998-4a1.502 1.502 0 00-1.335 0zm-.445-.896a2.5 2.5 0 012.226 0l8 4A2.5 2.5 0 0122.5 7.24v9.53a2.5 2.5 0 01-1.387 2.238l-8 4a2.5 2.5 0 01-2.237 0l-8-4-.001-.002A2.5 2.5 0 011.5 16.758V7.24a2.5 2.5 0 011.387-2.237l8-4z" fill="#414141"/><path fill-rule="evenodd" clip-rule="evenodd" d="M1.873 5.936a.5.5 0 01.67-.223L12 10.44l9.456-4.728a.5.5 0 11.448.894l-9.68 4.84a.5.5 0 01-.448 0l-9.68-4.84a.5.5 0 01-.223-.67z" fill="#414141"/><path fill-rule="evenodd" clip-rule="evenodd" d="M12 10.5a.5.5 0 01.5.5v11.76a.5.5 0 01-1 0V11a.5.5 0 01.5-.5zM6.553 3.276a.5.5 0 01.67-.223l10 5a.5.5 0 11-.447.894l-10-5a.5.5 0 01-.223-.67z" fill="#414141"/></symbol><symbol fill="none" xmlns="http://www.w3.org/2000/svg" viewBox="0 0 24 24" id="chevron-down"><path fill-rule="evenodd" clip-rule="evenodd" d="M5.646 8.646a.5.5 0 01.708 0L12 14.293l5.646-5.647a.5.5 0 01.708.708l-6 6a.5.5 0 01-.708 0l-6-6a.5.5 0 010-.708z" fill="#414141"/></symbol><symbol fill="none" xmlns="http://www.w3.org/2000/svg" viewBox="0 0 24 24" id="chevron-right"><path fill-rule="evenodd" clip-rule="evenodd" d="M8.646 5.646a.5.5 0 01.708 0l6 6a.5.5 0 010 .708l-6 6a.5.5 0 01-.708-.708L14.293 12 8.646 6.354a.5.5 0 010-.708z" fill="#606060"/></symbol><symbol fill="none" xmlns="http://www.w3.org/2000/svg" viewBox="0 0 24 24" id="burger-menu"><path fill-rule="evenodd" clip-rule="evenodd" d="M2.5 12a.5.5 0 01.5-.5h18a.5.5 0 010 1H3a.5.5 0 01-.5-.5zm0-6a.5.5 0 01.5-.5h18a.5.5 0 010 1H3a.5.5 0 01-.5-.5zm0 12a.5.5 0 01.5-.5h18a.5.5 0 010 1H3a.5.5 0 01-.5-.5z" fill="#fff"/></symbol><symbol fill="none" xmlns="http://www.w3.org/2000/svg" viewBox="0 0 24 24" id="search"><path fill-rule="evenodd" clip-rule="evenodd" d="M2.5 10.5a8 8 0 1116 0 8 8 0 01-16 0zm8-7a7 7 0 100 14 7 7 0 000-14z" fill="#414141"/><path fill-rule="evenodd" clip-rule="evenodd" d="M15.446 15.447a.5.5 0 01.708 0l5.2 5.2a.5.5 0 01-.708.707l-5.2-5.2a.5.5 0 010-.707z" fill="#414141"/></symbol><symbol fill="none" xmlns="http://www.w3.org/2000/svg" viewBox="0 0 24 24" id="phone"><path fill-rule="evenodd" clip-rule="evenodd" d="M.53 5.628C.3 3.782 1.88 2.5 3.577 2.5h3.591a1.5 1.5 0 011.476 1.232l.606 3.335a3.5 3.5 0 01-.71 2.812l-.724.904a.467.467 0 00-.04.537c.469.766 1.314 2.06 2.08 2.826.767.767 2.06 1.612 2.826 2.081.163.1.376.088.538-.04l.904-.724a3.5 3.5 0 012.812-.71l3.335.606a1.5 1.5 0 011.232 1.476v3.347c0 1.821-1.451 3.442-3.385 3.131-3.313-.533-8.048-2.236-11.982-6.473C2.31 12.72.893 8.515.531 5.628zM3.577 3.5c-1.265 0-2.19.91-2.053 2.003.338 2.692 1.671 6.7 5.345 10.657 3.75 4.038 8.263 5.66 11.408 6.166 1.194.192 2.226-.797 2.226-2.144v-3.347a.5.5 0 00-.41-.492l-3.336-.607a2.5 2.5 0 00-2.009.508l-.904.723a1.465 1.465 0 01-1.684.113c-.764-.468-2.151-1.367-3.01-2.226-.86-.86-1.76-2.248-2.227-3.01a1.467 1.467 0 01.113-1.685l.723-.905a2.5 2.5 0 00.507-2.009L7.66 3.911a.5.5 0 00-.492-.411H3.576z" fill="#414141"/></symbol><symbol fill="none" xmlns="http://www.w3.org/2000/svg" viewBox="0 0 24 24" id="heart"><path fill-rule="evenodd" clip-rule="evenodd" d="M12.705 4.256a6 6 0 118.487 8.487l-8.84 8.84a.5.5 0 01-.707 0l-8.84-8.84a6.001 6.001 0 118.487-8.487l.706.707.707-.707zm4.243-.758a5 5 0 00-3.536 1.465l-1.06 1.06a.5.5 0 01-.707 0l-1.06-1.06a5.001 5.001 0 10-7.073 7.073l8.486 8.487 8.487-8.487a5 5 0 00-3.537-8.538z" fill="#414141"/></symbol></svg>