<svg width="327" height="158" viewBox="0 0 327 158" fill="none" xmlns="http://www.w3.org/2000/svg">
<path d="M243.401 32C243.154 32 242.931 31.9126 242.732 31.7378C242.559 31.5381 242.472 31.3134 242.472 31.0637V24.2846H235.929C235.682 24.2846 235.458 24.1973 235.26 24.0225C235.087 23.8227 235 23.598 235 23.3483V20.4644C235 20.1898 235.087 19.965 235.26 19.7903C235.434 19.5905 235.657 19.4906 235.929 19.4906H242.472V12.9363C242.472 12.6617 242.559 12.437 242.732 12.2622C242.931 12.0874 243.154 12 243.401 12H246.599C246.871 12 247.094 12.0874 247.268 12.2622C247.466 12.437 247.565 12.6617 247.565 12.9363V19.4906H254.033C254.306 19.4906 254.529 19.5905 254.703 19.7903C254.901 19.965 255 20.1898 255 20.4644V23.3483C255 23.623 254.901 23.8477 254.703 24.0225C254.529 24.1973 254.306 24.2846 254.033 24.2846H247.565V31.0637C247.565 31.3383 247.466 31.563 247.268 31.7378C247.094 31.9126 246.871 32 246.599 32H243.401Z" fill="#FF6633"/>
<path d="M301.022 107C300.638 107 300.292 106.869 299.985 106.607C299.716 106.307 299.582 105.97 299.582 105.596V95.427H289.441C289.056 95.427 288.711 95.2959 288.403 95.0337C288.134 94.7341 288 94.397 288 94.0225V89.6966C288 89.2846 288.134 88.9476 288.403 88.6854C288.672 88.3858 289.018 88.236 289.441 88.236H299.582V78.4045C299.582 77.9925 299.716 77.6554 299.985 77.3933C300.292 77.1311 300.638 77 301.022 77H305.978C306.4 77 306.746 77.1311 307.015 77.3933C307.322 77.6554 307.476 77.9925 307.476 78.4045V88.236H317.502C317.924 88.236 318.27 88.3858 318.539 88.6854C318.846 88.9476 319 89.2846 319 89.6966V94.0225C319 94.4345 318.846 94.7715 318.539 95.0337C318.27 95.2959 317.924 95.427 317.502 95.427H307.476V105.596C307.476 106.007 307.322 106.345 307.015 106.607C306.746 106.869 306.4 107 305.978 107H301.022Z" fill="#FF6633"/>
<path d="M144.881 50C144.708 50 144.551 49.9432 144.413 49.8296C144.291 49.6997 144.23 49.5537 144.23 49.3914V44.985H139.651C139.477 44.985 139.321 44.9282 139.182 44.8146C139.061 44.6848 139 44.5387 139 44.3764V42.5019C139 42.3233 139.061 42.1773 139.182 42.0637C139.304 41.9338 139.46 41.8689 139.651 41.8689H144.23V37.6086C144.23 37.4301 144.291 37.284 144.413 37.1704C144.551 37.0568 144.708 37 144.881 37H147.119C147.31 37 147.466 37.0568 147.587 37.1704C147.726 37.284 147.796 37.4301 147.796 37.6086V41.8689H152.323C152.514 41.8689 152.67 41.9338 152.792 42.0637C152.931 42.1773 153 42.3233 153 42.5019V44.3764C153 44.5549 152.931 44.701 152.792 44.8146C152.67 44.9282 152.514 44.985 152.323 44.985H147.796V49.3914C147.796 49.5699 147.726 49.716 147.587 49.8296C147.466 49.9432 147.31 50 147.119 50H144.881Z" fill="#FF6633"/>
<path d="M19.7807 9C19.6691 9 19.5688 8.96067 19.4796 8.88202C19.4015 8.79213 19.3625 8.69101 19.3625 8.57865V5.52809H16.4182C16.3067 5.52809 16.2063 5.48876 16.1171 5.41011C16.039 5.32023 16 5.2191 16 5.10674V3.80899C16 3.68539 16.039 3.58427 16.1171 3.50562C16.1952 3.41573 16.2955 3.37079 16.4182 3.37079H19.3625V0.421348C19.3625 0.297753 19.4015 0.196629 19.4796 0.117978C19.5688 0.0393257 19.6691 0 19.7807 0H21.2193C21.342 0 21.4424 0.0393257 21.5204 0.117978C21.6097 0.196629 21.6543 0.297753 21.6543 0.421348V3.37079H24.5651C24.6877 3.37079 24.7881 3.41573 24.8662 3.50562C24.9554 3.58427 25 3.68539 25 3.80899V5.10674C25 5.23034 24.9554 5.33146 24.8662 5.41011C24.7881 5.48876 24.6877 5.52809 24.5651 5.52809H21.6543V8.57865C21.6543 8.70225 21.6097 8.80337 21.5204 8.88202C21.4424 8.96067 21.342 9 21.2193 9H19.7807Z" fill="#FF6633"/>
<path d="M254.781 136C254.669 136 254.569 135.965 254.48 135.895C254.401 135.815 254.362 135.725 254.362 135.625V132.914H251.418C251.307 132.914 251.206 132.879 251.117 132.809C251.039 132.729 251 132.639 251 132.539V131.386C251 131.276 251.039 131.186 251.117 131.116C251.195 131.036 251.296 130.996 251.418 130.996H254.362V128.375C254.362 128.265 254.401 128.175 254.48 128.105C254.569 128.035 254.669 128 254.781 128H256.219C256.342 128 256.442 128.035 256.52 128.105C256.61 128.175 256.654 128.265 256.654 128.375V130.996H259.565C259.688 130.996 259.788 131.036 259.866 131.116C259.955 131.186 260 131.276 260 131.386V132.539C260 132.649 259.955 132.739 259.866 132.809C259.788 132.879 259.688 132.914 259.565 132.914H256.654V135.625C256.654 135.735 256.61 135.825 256.52 135.895C256.442 135.965 256.342 136 256.219 136H254.781Z" fill="#FF6633"/>
<path d="M309.781 18C309.669 18 309.569 17.965 309.48 17.8951C309.401 17.8152 309.362 17.7253 309.362 17.6255V14.9139H306.418C306.307 14.9139 306.206 14.8789 306.117 14.809C306.039 14.7291 306 14.6392 306 14.5393V13.3858C306 13.2759 306.039 13.186 306.117 13.1161C306.195 13.0362 306.296 12.9963 306.418 12.9963H309.362V10.3745C309.362 10.2647 309.401 10.1748 309.48 10.1049C309.569 10.035 309.669 10 309.781 10H311.219C311.342 10 311.442 10.035 311.52 10.1049C311.61 10.1748 311.654 10.2647 311.654 10.3745V12.9963H314.565C314.688 12.9963 314.788 13.0362 314.866 13.1161C314.955 13.186 315 13.2759 315 13.3858V14.5393C315 14.6492 314.955 14.7391 314.866 14.809C314.788 14.8789 314.688 14.9139 314.565 14.9139H311.654V17.6255C311.654 17.7353 311.61 17.8252 311.52 17.8951C311.442 17.965 311.342 18 311.219 18H309.781Z" fill="#FF6633"/>
<path d="M321.781 150C321.669 150 321.569 149.961 321.48 149.882C321.401 149.792 321.362 149.691 321.362 149.579V146.528H318.418C318.307 146.528 318.206 146.489 318.117 146.41C318.039 146.32 318 146.219 318 146.107V144.809C318 144.685 318.039 144.584 318.117 144.506C318.195 144.416 318.296 144.371 318.418 144.371H321.362V141.421C321.362 141.298 321.401 141.197 321.48 141.118C321.569 141.039 321.669 141 321.781 141H323.219C323.342 141 323.442 141.039 323.52 141.118C323.61 141.197 323.654 141.298 323.654 141.421V144.371H326.565C326.688 144.371 326.788 144.416 326.866 144.506C326.955 144.584 327 144.685 327 144.809V146.107C327 146.23 326.955 146.331 326.866 146.41C326.788 146.489 326.688 146.528 326.565 146.528H323.654V149.579C323.654 149.702 323.61 149.803 323.52 149.882C323.442 149.961 323.342 150 323.219 150H321.781Z" fill="#FF6633"/>
<path d="M138.781 135C138.669 135 138.569 134.965 138.48 134.895C138.401 134.815 138.362 134.725 138.362 134.625V131.914H135.418C135.307 131.914 135.206 131.879 135.117 131.809C135.039 131.729 135 131.639 135 131.539V130.386C135 130.276 135.039 130.186 135.117 130.116C135.195 130.036 135.296 129.996 135.418 129.996H138.362V127.375C138.362 127.265 138.401 127.175 138.48 127.105C138.569 127.035 138.669 127 138.781 127H140.219C140.342 127 140.442 127.035 140.52 127.105C140.61 127.175 140.654 127.265 140.654 127.375V129.996H143.565C143.688 129.996 143.788 130.036 143.866 130.116C143.955 130.186 144 130.276 144 130.386V131.539C144 131.649 143.955 131.739 143.866 131.809C143.788 131.879 143.688 131.914 143.565 131.914H140.654V134.625C140.654 134.735 140.61 134.825 140.52 134.895C140.442 134.965 140.342 135 140.219 135H138.781Z" fill="#FF6633"/>
<path d="M2.94052 158C2.85378 158 2.77571 157.974 2.70632 157.921C2.6456 157.861 2.61524 157.794 2.61524 157.719V155.685H0.325279C0.238538 155.685 0.160471 155.659 0.0910781 155.607C0.0303594 155.547 0 155.479 0 155.404V154.539C0 154.457 0.0303594 154.39 0.0910781 154.337C0.151797 154.277 0.229864 154.247 0.325279 154.247H2.61524V152.281C2.61524 152.199 2.6456 152.131 2.70632 152.079C2.77571 152.026 2.85378 152 2.94052 152H4.05948C4.15489 152 4.23296 152.026 4.29368 152.079C4.36307 152.131 4.39777 152.199 4.39777 152.281V154.247H6.66171C6.75712 154.247 6.83519 154.277 6.89591 154.337C6.9653 154.39 7 154.457 7 154.539V155.404C7 155.487 6.9653 155.554 6.89591 155.607C6.83519 155.659 6.75712 155.685 6.66171 155.685H4.39777V157.719C4.39777 157.801 4.36307 157.869 4.29368 157.921C4.23296 157.974 4.15489 158 4.05948 158H2.94052Z" fill="#FF6633"/>
<path d="M163.502 101C163.192 101 162.913 100.895 162.665 100.685C162.449 100.446 162.34 100.176 162.34 99.8764V91.7416H154.162C153.852 91.7416 153.573 91.6367 153.325 91.427C153.108 91.1873 153 90.9176 153 90.618V87.1573C153 86.8277 153.108 86.5581 153.325 86.3483C153.542 86.1086 153.821 85.9888 154.162 85.9888H162.34V78.1236C162.34 77.794 162.449 77.5243 162.665 77.3146C162.913 77.1049 163.192 77 163.502 77H167.498C167.839 77 168.118 77.1049 168.335 77.3146C168.582 77.5243 168.706 77.794 168.706 78.1236V85.9888H176.792C177.133 85.9888 177.411 86.1086 177.628 86.3483C177.876 86.5581 178 86.8277 178 87.1573V90.618C178 90.9476 177.876 91.2172 177.628 91.427C177.411 91.6367 177.133 91.7416 176.792 91.7416H168.706V99.8764C168.706 100.206 168.582 100.476 168.335 100.685C168.118 100.895 167.839 101 167.498 101H163.502Z" fill="#FF6633"/>
<path d="M185.752 56C185.356 56 185.014 55.8733 184.726 55.62C184.473 55.3667 184.347 55.041 184.347 54.6429V49.8657H180.35C179.954 49.8657 179.63 49.739 179.378 49.4857C179.126 49.1962 179 48.8524 179 48.4543V46.2829C179 45.8848 179.126 45.559 179.378 45.3057C179.666 45.0524 179.99 44.9257 180.35 44.9257H184.347V42.2114H180.35C179.99 42.2114 179.666 42.0848 179.378 41.8314C179.126 41.5419 179 41.2162 179 40.8543V36.5114C179 36.1133 179.126 35.7876 179.378 35.5343C179.666 35.281 179.99 35.1543 180.35 35.1543H184.347V19.4114C184.347 19.0133 184.473 18.6876 184.726 18.4343C185.014 18.1448 185.356 18 185.752 18H201.038C205.683 18 209.338 19.0676 212.003 21.2029C214.668 23.3381 216 26.4686 216 30.5943C216 34.4667 214.668 37.38 212.003 39.3343C209.374 41.2524 205.719 42.2114 201.038 42.2114H194.88V44.9257H201.794C202.19 44.9257 202.514 45.0524 202.766 45.3057C203.018 45.559 203.145 45.8848 203.145 46.2829V48.4543C203.145 48.8524 203.018 49.1962 202.766 49.4857C202.514 49.739 202.19 49.8657 201.794 49.8657H194.88V54.6429C194.88 55.041 194.736 55.3667 194.448 55.62C194.196 55.8733 193.872 56 193.476 56H185.752ZM200.768 35.1543C202.244 35.1543 203.397 34.7743 204.225 34.0143C205.089 33.2181 205.521 32.06 205.521 30.54C205.521 29.1286 205.125 27.9886 204.333 27.12C203.541 26.2514 202.352 25.8171 200.768 25.8171H194.664V35.1543H200.768Z" fill="#70C05B"/>
<path d="M281.204 63C280.84 63 280.526 62.88 280.261 62.64C280.03 62.4 279.914 62.0914 279.914 61.7143V57.1886H276.241C275.877 57.1886 275.579 57.0686 275.347 56.8286C275.116 56.5543 275 56.2286 275 55.8514V53.7943C275 53.4171 275.116 53.1086 275.347 52.8686C275.612 52.6286 275.91 52.5086 276.241 52.5086H279.914V49.9371H276.241C275.91 49.9371 275.612 49.8171 275.347 49.5771C275.116 49.3029 275 48.9943 275 48.6514V44.5371C275 44.16 275.116 43.8514 275.347 43.6114C275.612 43.3714 275.91 43.2514 276.241 43.2514H279.914V28.3371C279.914 27.96 280.03 27.6514 280.261 27.4114C280.526 27.1371 280.84 27 281.204 27H295.251C299.52 27 302.878 28.0114 305.327 30.0343C307.776 32.0571 309 35.0229 309 38.9314C309 42.6 307.776 45.36 305.327 47.2114C302.911 49.0286 299.553 49.9371 295.251 49.9371H289.593V52.5086H295.946C296.31 52.5086 296.608 52.6286 296.839 52.8686C297.071 53.1086 297.187 53.4171 297.187 53.7943V55.8514C297.187 56.2286 297.071 56.5543 296.839 56.8286C296.608 57.0686 296.31 57.1886 295.946 57.1886H289.593V61.7143C289.593 62.0914 289.46 62.4 289.196 62.64C288.964 62.88 288.666 63 288.302 63H281.204ZM295.003 43.2514C296.36 43.2514 297.418 42.8914 298.18 42.1714C298.974 41.4171 299.371 40.32 299.371 38.88C299.371 37.5429 299.007 36.4629 298.279 35.64C297.551 34.8171 296.459 34.4057 295.003 34.4057H289.394V43.2514H295.003Z" fill="#70C05B"/>
<path d="M276.015 132C275.779 132 275.576 131.923 275.404 131.77C275.255 131.617 275.18 131.42 275.18 131.179V128.287H272.803C272.567 128.287 272.375 128.21 272.225 128.057C272.075 127.882 272 127.674 272 127.433V126.119C272 125.878 272.075 125.68 272.225 125.527C272.396 125.374 272.589 125.297 272.803 125.297H275.18V123.654H272.803C272.589 123.654 272.396 123.578 272.225 123.424C272.075 123.249 272 123.052 272 122.833V120.204C272 119.963 272.075 119.766 272.225 119.613C272.396 119.46 272.589 119.383 272.803 119.383H275.18V109.854C275.18 109.613 275.255 109.416 275.404 109.263C275.576 109.088 275.779 109 276.015 109H285.104C287.866 109 290.039 109.646 291.623 110.939C293.208 112.231 294 114.126 294 116.623C294 118.967 293.208 120.73 291.623 121.913C290.06 123.074 287.887 123.654 285.104 123.654H281.442V125.297H285.553C285.789 125.297 285.982 125.374 286.131 125.527C286.281 125.68 286.356 125.878 286.356 126.119V127.433C286.356 127.674 286.281 127.882 286.131 128.057C285.982 128.21 285.789 128.287 285.553 128.287H281.442V131.179C281.442 131.42 281.357 131.617 281.185 131.77C281.036 131.923 280.843 132 280.607 132H276.015ZM284.943 119.383C285.821 119.383 286.506 119.153 286.999 118.693C287.512 118.211 287.769 117.51 287.769 116.59C287.769 115.736 287.534 115.046 287.063 114.52C286.592 113.994 285.885 113.731 284.943 113.731H281.314V119.383H284.943Z" fill="#70C05B"/>
<path d="M182.285 131C182.092 131 181.926 130.93 181.785 130.79C181.663 130.65 181.601 130.47 181.601 130.25V127.61H179.657C179.464 127.61 179.307 127.54 179.184 127.4C179.061 127.24 179 127.05 179 126.83V125.63C179 125.41 179.061 125.23 179.184 125.09C179.324 124.95 179.482 124.88 179.657 124.88H181.601V123.38H179.657C179.482 123.38 179.324 123.31 179.184 123.17C179.061 123.01 179 122.83 179 122.63V120.23C179 120.01 179.061 119.83 179.184 119.69C179.324 119.55 179.482 119.48 179.657 119.48H181.601V110.78C181.601 110.56 181.663 110.38 181.785 110.24C181.926 110.08 182.092 110 182.285 110H189.721C191.981 110 193.759 110.59 195.055 111.77C196.352 112.95 197 114.68 197 116.96C197 119.1 196.352 120.71 195.055 121.79C193.777 122.85 191.999 123.38 189.721 123.38H186.726V124.88H190.089C190.282 124.88 190.439 124.95 190.562 125.09C190.685 125.23 190.746 125.41 190.746 125.63V126.83C190.746 127.05 190.685 127.24 190.562 127.4C190.439 127.54 190.282 127.61 190.089 127.61H186.726V130.25C186.726 130.47 186.655 130.65 186.515 130.79C186.393 130.93 186.235 131 186.042 131H182.285ZM189.59 119.48C190.308 119.48 190.869 119.27 191.272 118.85C191.692 118.41 191.902 117.77 191.902 116.93C191.902 116.15 191.709 115.52 191.324 115.04C190.939 114.56 190.361 114.32 189.59 114.32H186.62V119.48H189.59Z" fill="#70C05B"/>
</svg>
