<svg width="0" height="0" class="hidden">
  <symbol fill="none" xmlns="http://www.w3.org/2000/svg" viewBox="0 0 24 24" id="basket">
    <path fill-rule="evenodd" clip-rule="evenodd"
      d="M5.5 21C5.5 19.6193 6.61929 18.5 8 18.5C9.38071 18.5 10.5 19.6193 10.5 21C10.5 22.3807 9.38071 23.5 8 23.5C6.61929 23.5 5.5 22.3807 5.5 21ZM8 19.5C7.17157 19.5 6.5 20.1716 6.5 21C6.5 21.8284 7.17157 22.5 8 22.5C8.82843 22.5 9.5 21.8284 9.5 21C9.5 20.1716 8.82843 19.5 8 19.5Z"
      fill="#414141"></path>
    <path fill-rule="evenodd" clip-rule="evenodd"
      d="M17.5 21C17.5 19.6193 18.6193 18.5 20 18.5C21.3807 18.5 22.5 19.6193 22.5 21C22.5 22.3807 21.3807 23.5 20 23.5C18.6193 23.5 17.5 22.3807 17.5 21ZM20 19.5C19.1716 19.5 18.5 20.1716 18.5 21C18.5 21.8284 19.1716 22.5 20 22.5C20.8284 22.5 21.5 21.8284 21.5 21C21.5 20.1716 20.8284 19.5 20 19.5Z"
      fill="#414141"></path>
    <path fill-rule="evenodd" clip-rule="evenodd"
      d="M1 0.5C0.723858 0.5 0.5 0.723858 0.5 1C0.5 1.27614 0.723858 1.5 1 1.5H4.58051C5.33783 5.79147 6.10333 10.0643 6.74931 14.3709C6.93288 15.5947 7.98416 16.5 9.22165 16.5H19.3597C20.5514 16.5 21.5774 15.6588 21.8111 14.4903L23.2503 7.29417C23.436 6.36599 22.726 5.5 21.7795 5.5H7.16046C6.8575 5.5 6.57797 5.58901 6.34436 5.74093L5.49239 0.913107C5.45023 0.674179 5.24262 0.5 5 0.5H1ZM6.666 7.07417C6.62065 6.77187 6.85478 6.5 7.16046 6.5H21.7795C22.095 6.5 22.3316 6.78866 22.2698 7.09806L20.8305 14.2942C20.6903 14.9953 20.0747 15.5 19.3597 15.5H9.22165C8.47916 15.5 7.84839 14.9568 7.73825 14.2225L6.666 7.07417Z"
      fill="#414141"></path>
  </symbol>
  <symbol fill="none" xmlns="http://www.w3.org/2000/svg" viewBox="0 0 23 20" id="favorites">
    <path fill-rule="evenodd" clip-rule="evenodd"
      d="M12.2046 2.25644C13.3299 1.13067 14.8564 0.498169 16.4482 0.498169C18.0399 0.498169 19.5664 1.13063 20.6916 2.25636C21.8174 3.38164 22.45 4.90829 22.45 6.49999C22.45 8.09174 21.8175 9.61826 20.6917 10.7435C20.6917 10.7436 20.6917 10.7435 20.6917 10.7435L11.8517 19.5835C11.6565 19.7788 11.3399 19.7788 11.1446 19.5835L2.30461 10.7435C-0.0390375 8.3999 -0.0390373 4.60009 2.30461 2.25644C4.64826 -0.0872086 8.44807 -0.0872087 10.7917 2.25644L11.4982 2.96289L12.2046 2.25644C12.2046 2.25641 12.2046 2.25647 12.2046 2.25644ZM16.4482 1.49817C15.1217 1.49817 13.8496 2.02528 12.9118 2.96346L11.8517 4.02355C11.758 4.11732 11.6308 4.16999 11.4982 4.16999C11.3656 4.16999 11.2384 4.11732 11.1446 4.02355L10.0846 2.96355C8.13149 1.01042 4.96484 1.01042 3.01172 2.96355C1.05859 4.91667 1.05859 8.08332 3.01172 10.0364L11.4982 18.5229L19.9846 10.0364C20.9228 9.09869 21.45 7.82648 21.45 6.49999C21.45 5.17351 20.9229 3.90138 19.9847 2.96363C19.0469 2.02544 17.7747 1.49817 16.4482 1.49817Z"
      fill="#414141"></path>
  </symbol>
  <symbol fill="none" xmlns="http://www.w3.org/2000/svg" viewBox="0 0 24 24" id="orders">
    <path fill-rule="evenodd" clip-rule="evenodd"
      d="M11.3325 1.89779C11.3323 1.89788 11.3327 1.8977 11.3325 1.89779L3.33359 5.89724L3.33249 5.89779C2.82282 6.15105 2.50039 6.67092 2.49999 7.24003V16.7635C2.49602 17.3334 2.81535 17.8563 3.3241 18.1131C3.32381 18.1129 3.32439 18.1132 3.3241 18.1131L11.3236 22.1128C11.7461 22.3242 12.2437 22.3243 12.6662 22.1129L20.6664 18.1128L20.6675 18.1123C21.1772 17.859 21.4997 17.339 21.5 16.7698V7.24029C21.4997 6.67109 21.1772 6.15109 20.6675 5.89779L20.6664 5.89724L12.6675 1.89779C12.6673 1.8977 12.6677 1.89789 12.6675 1.89779C12.2473 1.68923 11.7527 1.68922 11.3325 1.89779ZM10.8875 1.00226C11.5883 0.654031 12.4117 0.654031 13.1125 1.00226L13.1136 1.00281L21.1125 5.00226C21.1123 5.00218 21.1126 5.00234 21.1125 5.00226C21.9618 5.42451 22.4995 6.29126 22.5 7.23976V16.77C22.4995 17.7185 21.9623 18.5852 21.1131 19.0075C21.1129 19.0076 21.1134 19.0074 21.1131 19.0075L13.1137 23.0072C13.1137 23.0072 13.1138 23.0071 13.1137 23.0072C12.4096 23.3595 11.5805 23.3595 10.8764 23.0072C10.8763 23.0072 10.8764 23.0073 10.8764 23.0072L2.87638 19.0072L2.875 19.0065C2.02679 18.5792 1.49407 17.7081 1.49999 16.7584V7.24003C1.50049 6.29157 2.03766 5.42483 2.88689 5.00256C2.88669 5.00266 2.88709 5.00246 2.88689 5.00256L10.8864 1.00281L10.8875 1.00226Z"
      fill="#414141"></path>
    <path fill-rule="evenodd" clip-rule="evenodd"
      d="M1.87278 5.93641C1.99628 5.68943 2.29661 5.58931 2.5436 5.71281L12 10.441L21.4564 5.71281C21.7034 5.58931 22.0037 5.68943 22.1272 5.93641C22.2507 6.1834 22.1506 6.48374 21.9036 6.60724L12.2236 11.4472C12.0828 11.5176 11.9172 11.5176 11.7764 11.4472L2.09639 6.60724C1.8494 6.48374 1.74929 6.1834 1.87278 5.93641Z"
      fill="#414141"></path>
    <path fill-rule="evenodd" clip-rule="evenodd"
      d="M12 10.5C12.2761 10.5 12.5 10.7239 12.5 11V22.76C12.5 23.0361 12.2761 23.26 12 23.26C11.7239 23.26 11.5 23.0361 11.5 22.76V11C11.5 10.7239 11.7239 10.5 12 10.5Z"
      fill="#414141"></path>
    <path fill-rule="evenodd" clip-rule="evenodd"
      d="M6.55277 3.27638C6.67627 3.02939 6.9766 2.92928 7.22359 3.05277L17.2236 8.05277C17.4706 8.17627 17.5707 8.4766 17.4472 8.72359C17.3237 8.97058 17.0234 9.0707 16.7764 8.9472L6.77638 3.9472C6.52939 3.82371 6.42928 3.52337 6.55277 3.27638Z"
      fill="#414141"></path>
  </symbol>
  <symbol fill="none" xmlns="http://www.w3.org/2000/svg" viewBox="0 0 24 24" id="chevron-down">
    <path fill-rule="evenodd" clip-rule="evenodd"
      d="M5.64645 8.64645C5.84171 8.45118 6.15829 8.45118 6.35355 8.64645L12 14.2929L17.6464 8.64645C17.8417 8.45118 18.1583 8.45118 18.3536 8.64645C18.5488 8.84171 18.5488 9.15829 18.3536 9.35355L12.3536 15.3536C12.1583 15.5488 11.8417 15.5488 11.6464 15.3536L5.64645 9.35355C5.45118 9.15829 5.45118 8.84171 5.64645 8.64645Z"
      fill="#414141"></path>
  </symbol>
  <symbol fill="none" xmlns="http://www.w3.org/2000/svg" viewBox="0 0 24 24" id="chevron-right">
    <path fill-rule="evenodd" clip-rule="evenodd"
      d="M8.64645 5.64645C8.84171 5.45118 9.15829 5.45118 9.35355 5.64645L15.3536 11.6464C15.5488 11.8417 15.5488 12.1583 15.3536 12.3536L9.35355 18.3536C9.15829 18.5488 8.84171 18.5488 8.64645 18.3536C8.45118 18.1583 8.45118 17.8417 8.64645 17.6464L14.2929 12L8.64645 6.35355C8.45118 6.15829 8.45118 5.84171 8.64645 5.64645Z"
      fill="#606060"></path>
  </symbol>
  <symbol fill="none" xmlns="http://www.w3.org/2000/svg" viewBox="0 0 24 24" id="burger-menu">
    <path fill-rule="evenodd" clip-rule="evenodd"
      d="M2.5 12C2.5 11.7239 2.72386 11.5 3 11.5H21C21.2761 11.5 21.5 11.7239 21.5 12C21.5 12.2761 21.2761 12.5 21 12.5H3C2.72386 12.5 2.5 12.2761 2.5 12Z"
      fill="white"></path>
    <path fill-rule="evenodd" clip-rule="evenodd"
      d="M2.5 6C2.5 5.72386 2.72386 5.5 3 5.5H21C21.2761 5.5 21.5 5.72386 21.5 6C21.5 6.27614 21.2761 6.5 21 6.5H3C2.72386 6.5 2.5 6.27614 2.5 6Z"
      fill="white"></path>
    <path fill-rule="evenodd" clip-rule="evenodd"
      d="M2.5 18C2.5 17.7239 2.72386 17.5 3 17.5H21C21.2761 17.5 21.5 17.7239 21.5 18C21.5 18.2761 21.2761 18.5 21 18.5H3C2.72386 18.5 2.5 18.2761 2.5 18Z"
      fill="white"></path>
  </symbol>
  <symbol fill="none" xmlns="http://www.w3.org/2000/svg" viewBox="0 0 24 24" id="search">
    <path fill-rule="evenodd" clip-rule="evenodd"
      d="M2.5 10.5C2.5 6.08172 6.08172 2.5 10.5 2.5C14.9183 2.5 18.5 6.08172 18.5 10.5C18.5 14.9183 14.9183 18.5 10.5 18.5C6.08172 18.5 2.5 14.9183 2.5 10.5ZM10.5 3.5C6.63401 3.5 3.5 6.63401 3.5 10.5C3.5 14.366 6.63401 17.5 10.5 17.5C14.366 17.5 17.5 14.366 17.5 10.5C17.5 6.63401 14.366 3.5 10.5 3.5Z"
      fill="#414141"></path>
    <path fill-rule="evenodd" clip-rule="evenodd"
      d="M15.4464 15.4465C15.6417 15.2512 15.9583 15.2512 16.1536 15.4465L21.3536 20.6465C21.5488 20.8418 21.5488 21.1583 21.3536 21.3536C21.1583 21.5489 20.8417 21.5489 20.6464 21.3536L15.4464 16.1536C15.2512 15.9583 15.2512 15.6418 15.4464 15.4465Z"
      fill="#414141"></path>
  </symbol>
  <symbol fill="none" xmlns="http://www.w3.org/2000/svg" viewBox="0 0 24 24" id="phone">
    <path fill-rule="evenodd" clip-rule="evenodd"
      d="M0.530549 5.62795C0.29859 3.78205 1.87862 2.5 3.57554 2.5H7.1672C7.89213 2.5 8.51333 3.01844 8.64301 3.73167L9.24935 7.06653C9.43046 8.06268 9.17133 9.08845 8.53884 9.87906L7.81545 10.7833C7.68654 10.9444 7.67475 11.1581 7.77434 11.3205C8.2439 12.0862 9.08857 13.3797 9.85533 14.1464C10.6221 14.9132 11.9156 15.7579 12.6813 16.2274C12.8437 16.327 13.0573 16.3152 13.2185 16.1863L14.1227 15.4629C14.9133 14.8304 15.9391 14.5713 16.9352 14.7524L20.2701 15.3588C20.9833 15.4885 21.5018 16.1096 21.5018 16.8346V20.1816C21.5018 22.0032 20.0508 23.624 18.1171 23.313C14.8045 22.7803 10.0694 21.0768 6.13538 16.8402C2.31033 12.7209 0.893311 8.51475 0.530549 5.62795ZM3.57554 3.5C2.31103 3.5 1.38547 4.41084 1.52275 5.50326C1.86104 8.19537 3.19444 12.2034 6.86818 16.1598C10.6177 20.1977 15.1307 21.8199 18.2758 22.3257C19.4703 22.5178 20.5018 21.5285 20.5018 20.1816V16.8346C20.5018 16.5929 20.329 16.3859 20.0912 16.3426L16.7564 15.7363C16.0448 15.6069 15.3121 15.792 14.7474 16.2438L13.8432 16.9672C13.3653 17.3495 12.6937 17.4081 12.1585 17.0799C11.3953 16.6119 10.008 15.7133 9.14823 14.8536C8.28849 13.9938 7.3899 12.6064 6.92187 11.8433C6.59367 11.3081 6.65231 10.6364 7.03458 10.1586L7.75797 9.25437C8.20975 8.68964 8.39485 7.95695 8.26548 7.24541L7.65914 3.91056C7.61591 3.67281 7.40885 3.5 7.1672 3.5H3.57554Z"
      fill="#414141"></path>
  </symbol>
  <symbol fill="none" xmlns="http://www.w3.org/2000/svg" viewBox="0 0 24 24" id="heart">
    <path fill-rule="evenodd" clip-rule="evenodd"
      d="M12.7046 4.25644C13.8299 3.13067 15.3564 2.49817 16.9482 2.49817C18.5399 2.49817 20.0664 3.13063 21.1916 4.25636C22.3174 5.38164 22.95 6.90829 22.95 8.49999C22.95 10.0917 22.3175 11.6183 21.1917 12.7435C21.1917 12.7436 21.1917 12.7435 21.1917 12.7435L12.3517 21.5835C12.1565 21.7788 11.8399 21.7788 11.6446 21.5835L2.80461 12.7435C0.460963 10.3999 0.460963 6.60009 2.80461 4.25644C5.14826 1.91279 8.94807 1.91279 11.2917 4.25644L11.9982 4.96289L12.7046 4.25644C12.7046 4.25641 12.7046 4.25647 12.7046 4.25644ZM16.9482 3.49817C15.6217 3.49817 14.3496 4.02528 13.4118 4.96346L12.3517 6.02355C12.258 6.11732 12.1308 6.16999 11.9982 6.16999C11.8656 6.16999 11.7384 6.11732 11.6446 6.02355L10.5846 4.96355C8.63149 3.01042 5.46484 3.01042 3.51172 4.96355C1.55859 6.91667 1.55859 10.0833 3.51172 12.0364L11.9982 20.5229L20.4846 12.0364C21.4228 11.0987 21.95 9.82648 21.95 8.49999C21.95 7.17351 21.4229 5.90138 20.4847 4.96363C19.5469 4.02544 18.2747 3.49817 16.9482 3.49817Z"
      fill="#414141"></path>
  </symbol>
</svg>